ply
format ascii 1.0
comment ism.py generated
element vertex 902.0
property float x
property float y
property float z
element face 1800.0
property list uchar int vertex_indices
end_header
-0.141441362643 -0.4 -0.5
-0.1 -0.4 -0.511269726897
-0.1 -0.455121689971 -0.5
0.0 -0.499458775777 -0.5
0.0 -0.4 -0.520334522431
0.1 -0.455121689971 -0.5
0.1 -0.4 -0.511269726897
0.141441362643 -0.4 -0.5
-0.1 -0.3 -0.527138727285
-0.199795297995 -0.3 -0.5
0.0 -0.3 -0.536203522199
0.1 -0.3 -0.527138727285
0.199795297995 -0.3 -0.5
-0.224877722888 -0.2 -0.5
-0.2 -0.2 -0.511275656181
-0.2 -0.299508729315 -0.5
-0.1 -0.2 -0.538470050846
0.0 -0.2 -0.547534846438
0.1 -0.2 -0.538470050846
0.2 -0.2 -0.511275656181
0.2 -0.299508729315 -0.5
0.224877722888 -0.2 -0.5
-0.2 -0.1 -0.518074258744
-0.239877626031 -0.1 -0.5
-0.1 -0.1 -0.545268653266
0.0 -0.1 -0.55433344857
0.1 -0.1 -0.545268653266
0.2 -0.1 -0.518074258744
0.239877626031 -0.1 -0.5
-0.2 0.0 -0.520340457332
-0.244877590641 0.0 -0.5
-0.1 0.0 -0.547534852665
0.0 0.0 -0.556599647874
0.1 0.0 -0.547534852665
0.2 0.0 -0.520340457332
0.244877590641 0.0 -0.5
-0.2 0.1 -0.518074258744
-0.239877626031 0.1 -0.5
-0.1 0.1 -0.545268653266
0.0 0.1 -0.55433344857
0.1 0.1 -0.545268653266
0.2 0.1 -0.518074258744
0.239877626031 0.1 -0.5
-0.2 0.2 -0.511275656181
-0.224877722888 0.2 -0.5
-0.1 0.2 -0.538470050846
0.0 0.2 -0.547534846438
0.1 0.2 -0.538470050846
0.2 0.2 -0.511275656181
0.224877722888 0.2 -0.5
-0.2 0.299508729315 -0.5
-0.1 0.3 -0.527138727285
-0.199795297995 0.3 -0.5
0.0 0.3 -0.536203522199
0.1 0.3 -0.527138727285
0.199795297995 0.3 -0.5
0.2 0.299508729315 -0.5
-0.1 0.4 -0.511269726897
-0.141441362643 0.4 -0.5
0.0 0.4 -0.520334522431
0.1 0.4 -0.511269726897
0.141441362643 0.4 -0.5
-0.1 0.455121689971 -0.5
0.0 0.499458775777 -0.5
0.1 0.455121689971 -0.5
-0.160759907068 -0.7 -0.4
-0.1 -0.7 -0.420241053168
-0.1 -0.742944510602 -0.4
0.0 -0.766504179583 -0.4
0.0 -0.7 -0.431345442079
0.1 -0.742944510602 -0.4
0.1 -0.7 -0.420241053168
0.160759907068 -0.7 -0.4
-0.244230731262 -0.6 -0.4
-0.2 -0.6 -0.424557939833
-0.2 -0.665261495262 -0.4
-0.1 -0.6 -0.457871114882
0.0 -0.6 -0.468975504358
0.1 -0.6 -0.457871114882
0.2 -0.6 -0.424557939833
0.2 -0.665261495262 -0.4
0.244230731262 -0.6 -0.4
-0.2 -0.5 -0.455446885401
-0.299864085357 -0.5 -0.4
-0.1 -0.5 -0.48876005918
0.0 -0.5 -0.499864448372
0.1 -0.5 -0.48876005918
0.2 -0.5 -0.455446885401
0.299864085357 -0.5 -0.4
-0.332120767504 -0.4 -0.4
-0.3 -0.4 -0.424969910624
-0.3 -0.499698694846 -0.4
-0.2 -0.4 -0.48049225887
0.2 -0.4 -0.48049225887
0.3 -0.4 -0.424969910624
0.3 -0.499698694846 -0.4
0.332120767504 -0.4 -0.4
-0.3 -0.3 -0.444409459967
-0.357127393803 -0.3 -0.4
-0.2 -0.3 -0.499931807261
0.2 -0.3 -0.499931807261
0.3 -0.3 -0.444409459967
0.357127393803 -0.3 -0.4
-0.3 -0.2 -0.458290347989
-0.374983476305 -0.2 -0.4
0.3 -0.2 -0.458290347989
0.374983476305 -0.2 -0.4
-0.3 -0.1 -0.466618646389
-0.385696824008 -0.1 -0.4
0.3 -0.1 -0.466618646389
0.385696824008 -0.1 -0.4
-0.3 0.0 -0.469394744132
-0.389267937692 0.0 -0.4
0.3 0.0 -0.469394744132
0.389267937692 0.0 -0.4
-0.3 0.1 -0.466618646389
-0.385696824008 0.1 -0.4
0.3 0.1 -0.466618646389
0.385696824008 0.1 -0.4
-0.3 0.2 -0.458290347989
-0.374983476305 0.2 -0.4
0.3 0.2 -0.458290347989
0.374983476305 0.2 -0.4
-0.3 0.3 -0.444409459967
-0.357127393803 0.3 -0.4
-0.2 0.3 -0.499931807261
0.2 0.3 -0.499931807261
0.3 0.3 -0.444409459967
0.357127393803 0.3 -0.4
-0.3 0.4 -0.424969910624
-0.332120767504 0.4 -0.4
-0.2 0.4 -0.48049225887
0.2 0.4 -0.48049225887
0.3 0.4 -0.424969910624
0.332120767504 0.4 -0.4
-0.3 0.499698694846 -0.4
-0.2 0.5 -0.455446885401
-0.299864085357 0.5 -0.4
-0.1 0.5 -0.48876005918
0.0 0.5 -0.499864448372
0.1 0.5 -0.48876005918
0.2 0.5 -0.455446885401
0.299864085357 0.5 -0.4
0.3 0.499698694846 -0.4
-0.2 0.6 -0.424557939833
-0.244230731262 0.6 -0.4
-0.1 0.6 -0.457871114882
0.0 0.6 -0.468975504358
0.1 0.6 -0.457871114882
0.2 0.6 -0.424557939833
0.244230731262 0.6 -0.4
-0.2 0.665261495262 -0.4
-0.1 0.7 -0.420241053168
-0.160759907068 0.7 -0.4
0.0 0.7 -0.431345442079
0.1 0.7 -0.420241053168
0.160759907068 0.7 -0.4
0.2 0.665261495262 -0.4
-0.1 0.742944510602 -0.4
0.0 0.766504179583 -0.4
0.1 0.742944510602 -0.4
-0.231577247349 -0.8 -0.3
-0.2 -0.8 -0.322553347805
-0.2 -0.82741980246 -0.3
-0.1 -0.879519865555 -0.3
-0.1 -0.8 -0.36540671405
0.0 -0.896886550436 -0.3
0.0 -0.8 -0.379691166135
0.1 -0.879519865555 -0.3
0.1 -0.8 -0.36540671405
0.2 -0.82741980246 -0.3
0.2 -0.8 -0.322553347805
0.231577247349 -0.8 -0.3
-0.311761520395 -0.7 -0.3
-0.3 -0.7 -0.311761520395
-0.3 -0.719398540908 -0.3
-0.2 -0.7 -0.383184299128
0.2 -0.7 -0.383184299128
0.3 -0.7 -0.311761520395
0.3 -0.719398540908 -0.3
0.311761520395 -0.7 -0.3
-0.3 -0.6 -0.360168039647
-0.360168039647 -0.6 -0.3
0.3 -0.6 -0.360168039647
0.360168039647 -0.6 -0.3
-0.3 -0.5 -0.399902925988
-0.399902925988 -0.5 -0.3
0.3 -0.5 -0.399902925988
0.399902925988 -0.5 -0.3
-0.424969910624 -0.4 -0.3
-0.4 -0.4 -0.332120767504
-0.4 -0.499698694846 -0.3
0.4 -0.4 -0.332120767504
0.4 -0.499698694846 -0.3
0.424969910624 -0.4 -0.3
-0.4 -0.3 -0.357127393803
-0.444409459967 -0.3 -0.3
0.4 -0.3 -0.357127393803
0.444409459967 -0.3 -0.3
-0.4 -0.2 -0.374983476305
-0.458290347989 -0.2 -0.3
0.4 -0.2 -0.374983476305
0.458290347989 -0.2 -0.3
-0.4 -0.1 -0.385696824008
-0.466618646389 -0.1 -0.3
0.4 -0.1 -0.385696824008
0.466618646389 -0.1 -0.3
-0.4 0.0 -0.389267937692
-0.469394744132 0.0 -0.3
0.4 0.0 -0.389267937692
0.469394744132 0.0 -0.3
-0.4 0.1 -0.385696824008
-0.466618646389 0.1 -0.3
0.4 0.1 -0.385696824008
0.466618646389 0.1 -0.3
-0.4 0.2 -0.374983476305
-0.458290347989 0.2 -0.3
0.4 0.2 -0.374983476305
0.458290347989 0.2 -0.3
-0.4 0.3 -0.357127393803
-0.444409459967 0.3 -0.3
0.4 0.3 -0.357127393803
0.444409459967 0.3 -0.3
-0.4 0.4 -0.332120767504
-0.424969910624 0.4 -0.3
0.4 0.4 -0.332120767504
0.424969910624 0.4 -0.3
-0.4 0.499698694846 -0.3
-0.3 0.5 -0.399902925988
-0.399902925988 0.5 -0.3
0.3 0.5 -0.399902925988
0.4 0.499698694846 -0.3
0.399902925988 0.5 -0.3
-0.3 0.6 -0.360168039647
-0.360168039647 0.6 -0.3
0.3 0.6 -0.360168039647
0.360168039647 0.6 -0.3
-0.3 0.7 -0.311761520395
-0.311761520395 0.7 -0.3
-0.2 0.7 -0.383184299128
0.2 0.7 -0.383184299128
0.3 0.7 -0.311761520395
0.311761520395 0.7 -0.3
-0.3 0.719398540908 -0.3
-0.2 0.8 -0.322553347805
-0.231577247349 0.8 -0.3
-0.1 0.8 -0.36540671405
0.0 0.8 -0.379691166135
0.1 0.8 -0.36540671405
0.2 0.8 -0.322553347805
0.231577247349 0.8 -0.3
0.3 0.719398540908 -0.3
-0.2 0.82741980246 -0.3
-0.1 0.879519865555 -0.3
0.0 0.896886550436 -0.3
0.1 0.879519865555 -0.3
0.2 0.82741980246 -0.3
-0.216415049779 -0.9 -0.2
-0.2 -0.9 -0.216415049779
-0.2 -0.909304849952 -0.2
-0.1 -0.943315531594 -0.2
-0.1 -0.9 -0.276414626837
0.0 -0.954652424078 -0.2
0.0 -0.9 -0.296414482865
0.1 -0.943315531594 -0.2
0.1 -0.9 -0.276414626837
0.2 -0.909304849952 -0.2
0.2 -0.9 -0.216415049779
0.216415049779 -0.9 -0.2
-0.322553347805 -0.8 -0.2
-0.3 -0.8 -0.231577247349
-0.3 -0.82741980246 -0.2
0.3 -0.8 -0.231577247349
0.3 -0.82741980246 -0.2
0.322553347805 -0.8 -0.2
-0.383184299128 -0.7 -0.2
0.383184299128 -0.7 -0.2
-0.424557939833 -0.6 -0.2
-0.4 -0.6 -0.244230731262
-0.4 -0.665261495262 -0.2
0.4 -0.6 -0.244230731262
0.4 -0.665261495262 -0.2
0.424557939833 -0.6 -0.2
-0.4 -0.5 -0.299864085357
-0.455446885401 -0.5 -0.2
0.4 -0.5 -0.299864085357
0.455446885401 -0.5 -0.2
-0.48049225887 -0.4 -0.2
0.48049225887 -0.4 -0.2
-0.499931807261 -0.3 -0.2
0.499931807261 -0.3 -0.2
-0.511275656181 -0.2 -0.2
-0.5 -0.2 -0.224877722888
-0.5 -0.299508729315 -0.2
0.5 -0.2 -0.224877722888
0.5 -0.299508729315 -0.2
0.511275656181 -0.2 -0.2
-0.5 -0.1 -0.239877626031
-0.518074258744 -0.1 -0.2
0.5 -0.1 -0.239877626031
0.518074258744 -0.1 -0.2
-0.5 0.0 -0.244877590641
-0.520340457332 0.0 -0.2
0.5 0.0 -0.244877590641
0.520340457332 0.0 -0.2
-0.5 0.1 -0.239877626031
-0.518074258744 0.1 -0.2
0.5 0.1 -0.239877626031
0.518074258744 0.1 -0.2
-0.5 0.2 -0.224877722888
-0.511275656181 0.2 -0.2
0.5 0.2 -0.224877722888
0.511275656181 0.2 -0.2
-0.5 0.299508729315 -0.2
-0.499931807261 0.3 -0.2
0.499931807261 0.3 -0.2
0.5 0.299508729315 -0.2
-0.48049225887 0.4 -0.2
0.48049225887 0.4 -0.2
-0.455446885401 0.5 -0.2
-0.4 0.5 -0.299864085357
0.4 0.5 -0.299864085357
0.455446885401 0.5 -0.2
-0.4 0.6 -0.244230731262
-0.424557939833 0.6 -0.2
0.4 0.6 -0.244230731262
0.424557939833 0.6 -0.2
-0.4 0.665261495262 -0.2
-0.383184299128 0.7 -0.2
0.383184299128 0.7 -0.2
0.4 0.665261495262 -0.2
-0.322553347805 0.8 -0.2
-0.3 0.8 -0.231577247349
0.3 0.8 -0.231577247349
0.322553347805 0.8 -0.2
-0.3 0.82741980246 -0.2
-0.2 0.9 -0.216415049779
-0.216415049779 0.9 -0.2
-0.1 0.9 -0.276414626837
0.0 0.9 -0.296414482865
0.1 0.9 -0.276414626837
0.2 0.9 -0.216415049779
0.3 0.82741980246 -0.2
0.216415049779 0.9 -0.2
-0.2 0.909304849952 -0.2
-0.1 0.943315531594 -0.2
0.0 0.954652424078 -0.2
0.1 0.943315531594 -0.2
0.2 0.909304849952 -0.2
-0.276414626837 -0.9 -0.1
-0.2 -0.943315531594 -0.1
-0.1 -0.977326215277 -0.1
0.0 -0.988663107788 -0.1
0.1 -0.977326215277 -0.1
0.2 -0.943315531594 -0.1
0.276414626837 -0.9 -0.1
-0.36540671405 -0.8 -0.1
-0.3 -0.879519865555 -0.1
0.3 -0.879519865555 -0.1
0.36540671405 -0.8 -0.1
-0.420241053168 -0.7 -0.1
-0.4 -0.7 -0.160759907068
-0.4 -0.742944510602 -0.1
0.4 -0.7 -0.160759907068
0.4 -0.742944510602 -0.1
0.420241053168 -0.7 -0.1
-0.457871114882 -0.6 -0.1
0.457871114882 -0.6 -0.1
-0.48876005918 -0.5 -0.1
0.48876005918 -0.5 -0.1
-0.511269726897 -0.4 -0.1
-0.5 -0.4 -0.141441362643
-0.5 -0.455121689971 -0.1
0.5 -0.4 -0.141441362643
0.5 -0.455121689971 -0.1
0.511269726897 -0.4 -0.1
-0.5 -0.3 -0.199795297995
-0.527138727285 -0.3 -0.1
0.5 -0.3 -0.199795297995
0.527138727285 -0.3 -0.1
-0.538470050846 -0.2 -0.1
0.538470050846 -0.2 -0.1
-0.545268653266 -0.1 -0.1
0.545268653266 -0.1 -0.1
-0.547534852665 0.0 -0.1
0.547534852665 0.0 -0.1
-0.545268653266 0.1 -0.1
0.545268653266 0.1 -0.1
-0.538470050846 0.2 -0.1
0.538470050846 0.2 -0.1
-0.527138727285 0.3 -0.1
-0.5 0.3 -0.199795297995
0.5 0.3 -0.199795297995
0.527138727285 0.3 -0.1
-0.5 0.4 -0.141441362643
-0.511269726897 0.4 -0.1
0.5 0.4 -0.141441362643
0.511269726897 0.4 -0.1
-0.5 0.455121689971 -0.1
-0.48876005918 0.5 -0.1
0.48876005918 0.5 -0.1
0.5 0.455121689971 -0.1
-0.457871114882 0.6 -0.1
0.457871114882 0.6 -0.1
-0.420241053168 0.7 -0.1
-0.4 0.7 -0.160759907068
0.4 0.7 -0.160759907068
0.420241053168 0.7 -0.1
-0.4 0.742944510602 -0.1
-0.36540671405 0.8 -0.1
0.36540671405 0.8 -0.1
0.4 0.742944510602 -0.1
-0.3 0.879519865555 -0.1
-0.276414626837 0.9 -0.1
0.276414626837 0.9 -0.1
0.3 0.879519865555 -0.1
-0.2 0.943315531594 -0.1
-0.1 0.977326215277 -0.1
0.0 0.988663107788 -0.1
0.1 0.977326215277 -0.1
0.2 0.943315531594 -0.1
-0.296414482865 -0.9 0.0
-0.2 -0.954652424078 0.0
-0.1 -0.988663107788 0.0
0.0 -1.0 0.0
0.1 -0.988663107788 0.0
0.2 -0.954652424078 0.0
0.296414482865 -0.9 0.0
-0.379691166135 -0.8 0.0
-0.3 -0.896886550436 0.0
0.3 -0.896886550436 0.0
0.379691166135 -0.8 0.0
-0.431345442079 -0.7 0.0
-0.4 -0.766504179583 0.0
0.4 -0.766504179583 0.0
0.431345442079 -0.7 0.0
-0.468975504358 -0.6 0.0
0.468975504358 -0.6 0.0
-0.499864448372 -0.5 0.0
0.499864448372 -0.5 0.0
-0.520334522431 -0.4 0.0
-0.5 -0.499458775777 0.0
0.5 -0.499458775777 0.0
0.520334522431 -0.4 0.0
-0.536203522199 -0.3 0.0
0.536203522199 -0.3 0.0
-0.547534846438 -0.2 0.0
0.547534846438 -0.2 0.0
-0.55433344857 -0.1 0.0
0.55433344857 -0.1 0.0
-0.556599647874 0.0 0.0
0.556599647874 0.0 0.0
-0.55433344857 0.1 0.0
0.55433344857 0.1 0.0
-0.547534846438 0.2 0.0
0.547534846438 0.2 0.0
-0.536203522199 0.3 0.0
0.536203522199 0.3 0.0
-0.520334522431 0.4 0.0
0.520334522431 0.4 0.0
-0.5 0.499458775777 0.0
-0.499864448372 0.5 0.0
0.499864448372 0.5 0.0
0.5 0.499458775777 0.0
-0.468975504358 0.6 0.0
0.468975504358 0.6 0.0
-0.431345442079 0.7 0.0
0.431345442079 0.7 0.0
-0.4 0.766504179583 0.0
-0.379691166135 0.8 0.0
0.379691166135 0.8 0.0
0.4 0.766504179583 0.0
-0.3 0.896886550436 0.0
-0.296414482865 0.9 0.0
0.296414482865 0.9 0.0
0.3 0.896886550436 0.0
-0.2 0.954652424078 0.0
-0.1 0.988663107788 0.0
0.0 1.0 0.0
0.1 0.988663107788 0.0
0.2 0.954652424078 0.0
-0.276414626837 -0.9 0.1
-0.2 -0.943315531594 0.1
-0.1 -0.977326215277 0.1
0.0 -0.988663107788 0.1
0.1 -0.977326215277 0.1
0.2 -0.943315531594 0.1
0.276414626837 -0.9 0.1
-0.36540671405 -0.8 0.1
-0.3 -0.879519865555 0.1
0.3 -0.879519865555 0.1
0.36540671405 -0.8 0.1
-0.420241053168 -0.7 0.1
-0.4 -0.742944510602 0.1
0.4 -0.742944510602 0.1
0.420241053168 -0.7 0.1
-0.457871114882 -0.6 0.1
0.457871114882 -0.6 0.1
-0.48876005918 -0.5 0.1
0.48876005918 -0.5 0.1
-0.511269726897 -0.4 0.1
-0.5 -0.455121689971 0.1
0.5 -0.455121689971 0.1
0.511269726897 -0.4 0.1
-0.527138727285 -0.3 0.1
0.527138727285 -0.3 0.1
-0.538470050846 -0.2 0.1
0.538470050846 -0.2 0.1
-0.545268653266 -0.1 0.1
0.545268653266 -0.1 0.1
-0.547534852665 0.0 0.1
0.547534852665 0.0 0.1
-0.545268653266 0.1 0.1
0.545268653266 0.1 0.1
-0.538470050846 0.2 0.1
0.538470050846 0.2 0.1
-0.527138727285 0.3 0.1
0.527138727285 0.3 0.1
-0.511269726897 0.4 0.1
0.511269726897 0.4 0.1
-0.5 0.455121689971 0.1
-0.48876005918 0.5 0.1
0.48876005918 0.5 0.1
0.5 0.455121689971 0.1
-0.457871114882 0.6 0.1
0.457871114882 0.6 0.1
-0.420241053168 0.7 0.1
0.420241053168 0.7 0.1
-0.4 0.742944510602 0.1
-0.36540671405 0.8 0.1
0.36540671405 0.8 0.1
0.4 0.742944510602 0.1
-0.3 0.879519865555 0.1
-0.276414626837 0.9 0.1
0.276414626837 0.9 0.1
0.3 0.879519865555 0.1
-0.2 0.943315531594 0.1
-0.1 0.977326215277 0.1
0.0 0.988663107788 0.1
0.1 0.977326215277 0.1
0.2 0.943315531594 0.1
-0.216415049779 -0.9 0.2
-0.2 -0.909304849952 0.2
-0.1 -0.943315531594 0.2
0.0 -0.954652424078 0.2
0.1 -0.943315531594 0.2
0.2 -0.909304849952 0.2
0.216415049779 -0.9 0.2
-0.322553347805 -0.8 0.2
-0.3 -0.82741980246 0.2
0.3 -0.82741980246 0.2
0.322553347805 -0.8 0.2
-0.4 -0.7 0.160759907068
-0.383184299128 -0.7 0.2
0.383184299128 -0.7 0.2
0.4 -0.7 0.160759907068
-0.424557939833 -0.6 0.2
-0.4 -0.665261495262 0.2
0.4 -0.665261495262 0.2
0.424557939833 -0.6 0.2
-0.455446885401 -0.5 0.2
0.455446885401 -0.5 0.2
-0.5 -0.4 0.141441362643
-0.48049225887 -0.4 0.2
0.48049225887 -0.4 0.2
0.5 -0.4 0.141441362643
-0.5 -0.3 0.199795297995
-0.499931807261 -0.3 0.2
0.5 -0.3 0.199795297995
0.499931807261 -0.3 0.2
-0.511275656181 -0.2 0.2
-0.5 -0.299508729315 0.2
0.5 -0.299508729315 0.2
0.511275656181 -0.2 0.2
-0.518074258744 -0.1 0.2
0.518074258744 -0.1 0.2
-0.520340457332 0.0 0.2
0.520340457332 0.0 0.2
-0.518074258744 0.1 0.2
0.518074258744 0.1 0.2
-0.511275656181 0.2 0.2
0.511275656181 0.2 0.2
-0.5 0.3 0.199795297995
-0.5 0.299508729315 0.2
-0.499931807261 0.3 0.2
0.499931807261 0.3 0.2
0.5 0.3 0.199795297995
0.5 0.299508729315 0.2
-0.5 0.4 0.141441362643
-0.48049225887 0.4 0.2
0.5 0.4 0.141441362643
0.48049225887 0.4 0.2
-0.455446885401 0.5 0.2
0.455446885401 0.5 0.2
-0.424557939833 0.6 0.2
0.424557939833 0.6 0.2
-0.4 0.7 0.160759907068
-0.4 0.665261495262 0.2
-0.383184299128 0.7 0.2
0.383184299128 0.7 0.2
0.4 0.7 0.160759907068
0.4 0.665261495262 0.2
-0.322553347805 0.8 0.2
0.322553347805 0.8 0.2
-0.3 0.82741980246 0.2
-0.216415049779 0.9 0.2
0.216415049779 0.9 0.2
0.3 0.82741980246 0.2
-0.2 0.909304849952 0.2
-0.1 0.943315531594 0.2
0.0 0.954652424078 0.2
0.1 0.943315531594 0.2
0.2 0.909304849952 0.2
-0.2 -0.9 0.216415049779
-0.1 -0.9 0.276414626837
0.0 -0.9 0.296414482865
0.1 -0.9 0.276414626837
0.2 -0.9 0.216415049779
-0.3 -0.8 0.231577247349
-0.2 -0.82741980246 0.3
-0.231577247349 -0.8 0.3
-0.1 -0.879519865555 0.3
0.0 -0.896886550436 0.3
0.1 -0.879519865555 0.3
0.2 -0.82741980246 0.3
0.3 -0.8 0.231577247349
0.231577247349 -0.8 0.3
-0.311761520395 -0.7 0.3
-0.3 -0.719398540908 0.3
0.3 -0.719398540908 0.3
0.311761520395 -0.7 0.3
-0.4 -0.6 0.244230731262
-0.360168039647 -0.6 0.3
0.360168039647 -0.6 0.3
0.4 -0.6 0.244230731262
-0.4 -0.5 0.299864085357
-0.399902925988 -0.5 0.3
0.4 -0.5 0.299864085357
0.399902925988 -0.5 0.3
-0.424969910624 -0.4 0.3
-0.4 -0.499698694846 0.3
0.4 -0.499698694846 0.3
0.424969910624 -0.4 0.3
-0.444409459967 -0.3 0.3
0.444409459967 -0.3 0.3
-0.5 -0.2 0.224877722888
-0.458290347989 -0.2 0.3
0.458290347989 -0.2 0.3
0.5 -0.2 0.224877722888
-0.5 -0.1 0.239877626031
-0.466618646389 -0.1 0.3
0.5 -0.1 0.239877626031
0.466618646389 -0.1 0.3
-0.5 0.0 0.244877590641
-0.469394744132 0.0 0.3
0.5 0.0 0.244877590641
0.469394744132 0.0 0.3
-0.5 0.1 0.239877626031
-0.466618646389 0.1 0.3
0.5 0.1 0.239877626031
0.466618646389 0.1 0.3
-0.5 0.2 0.224877722888
-0.458290347989 0.2 0.3
0.5 0.2 0.224877722888
0.458290347989 0.2 0.3
-0.444409459967 0.3 0.3
0.444409459967 0.3 0.3
-0.424969910624 0.4 0.3
0.424969910624 0.4 0.3
-0.4 0.5 0.299864085357
-0.4 0.499698694846 0.3
-0.399902925988 0.5 0.3
0.399902925988 0.5 0.3
0.4 0.5 0.299864085357
0.4 0.499698694846 0.3
-0.4 0.6 0.244230731262
-0.360168039647 0.6 0.3
0.4 0.6 0.244230731262
0.360168039647 0.6 0.3
-0.311761520395 0.7 0.3
0.311761520395 0.7 0.3
-0.3 0.8 0.231577247349
-0.3 0.719398540908 0.3
-0.231577247349 0.8 0.3
0.231577247349 0.8 0.3
0.3 0.8 0.231577247349
0.3 0.719398540908 0.3
-0.2 0.9 0.216415049779
-0.2 0.82741980246 0.3
-0.1 0.879519865555 0.3
-0.1 0.9 0.276414626837
0.0 0.896886550436 0.3
0.0 0.9 0.296414482865
0.1 0.879519865555 0.3
0.1 0.9 0.276414626837
0.2 0.82741980246 0.3
0.2 0.9 0.216415049779
-0.2 -0.8 0.322553347805
-0.1 -0.8 0.36540671405
0.0 -0.8 0.379691166135
0.1 -0.8 0.36540671405
0.2 -0.8 0.322553347805
-0.3 -0.7 0.311761520395
-0.2 -0.7 0.383184299128
-0.160759907068 -0.7 0.4
-0.1 -0.742944510602 0.4
0.0 -0.766504179583 0.4
0.1 -0.742944510602 0.4
0.2 -0.7 0.383184299128
0.160759907068 -0.7 0.4
0.3 -0.7 0.311761520395
-0.3 -0.6 0.360168039647
-0.244230731262 -0.6 0.4
-0.2 -0.665261495262 0.4
0.2 -0.665261495262 0.4
0.3 -0.6 0.360168039647
0.244230731262 -0.6 0.4
-0.3 -0.5 0.399902925988
-0.299864085357 -0.5 0.4
0.3 -0.5 0.399902925988
0.299864085357 -0.5 0.4
-0.4 -0.4 0.332120767504
-0.3 -0.499698694846 0.4
-0.332120767504 -0.4 0.4
0.3 -0.499698694846 0.4
0.4 -0.4 0.332120767504
0.332120767504 -0.4 0.4
-0.4 -0.3 0.357127393803
-0.357127393803 -0.3 0.4
0.4 -0.3 0.357127393803
0.357127393803 -0.3 0.4
-0.4 -0.2 0.374983476305
-0.374983476305 -0.2 0.4
0.4 -0.2 0.374983476305
0.374983476305 -0.2 0.4
-0.4 -0.1 0.385696824008
-0.385696824008 -0.1 0.4
0.4 -0.1 0.385696824008
0.385696824008 -0.1 0.4
-0.4 0.0 0.389267937692
-0.389267937692 0.0 0.4
0.4 0.0 0.389267937692
0.389267937692 0.0 0.4
-0.4 0.1 0.385696824008
-0.385696824008 0.1 0.4
0.4 0.1 0.385696824008
0.385696824008 0.1 0.4
-0.4 0.2 0.374983476305
-0.374983476305 0.2 0.4
0.4 0.2 0.374983476305
0.374983476305 0.2 0.4
-0.4 0.3 0.357127393803
-0.357127393803 0.3 0.4
0.4 0.3 0.357127393803
0.357127393803 0.3 0.4
-0.4 0.4 0.332120767504
-0.332120767504 0.4 0.4
0.4 0.4 0.332120767504
0.332120767504 0.4 0.4
-0.3 0.5 0.399902925988
-0.3 0.499698694846 0.4
-0.299864085357 0.5 0.4
0.299864085357 0.5 0.4
0.3 0.5 0.399902925988
0.3 0.499698694846 0.4
-0.3 0.6 0.360168039647
-0.244230731262 0.6 0.4
0.3 0.6 0.360168039647
0.244230731262 0.6 0.4
-0.3 0.7 0.311761520395
-0.2 0.7 0.383184299128
-0.2 0.665261495262 0.4
-0.160759907068 0.7 0.4
0.160759907068 0.7 0.4
0.2 0.7 0.383184299128
0.2 0.665261495262 0.4
0.3 0.7 0.311761520395
-0.2 0.8 0.322553347805
-0.1 0.8 0.36540671405
-0.1 0.742944510602 0.4
0.0 0.766504179583 0.4
0.0 0.8 0.379691166135
0.1 0.742944510602 0.4
0.1 0.8 0.36540671405
0.2 0.8 0.322553347805
-0.1 -0.7 0.420241053168
0.0 -0.7 0.431345442079
0.1 -0.7 0.420241053168
-0.2 -0.6 0.424557939833
-0.1 -0.6 0.457871114882
0.0 -0.6 0.468975504358
0.1 -0.6 0.457871114882
0.2 -0.6 0.424557939833
-0.2 -0.5 0.455446885401
-0.1 -0.5 0.48876005918
0.0 -0.5 0.499864448372
0.1 -0.5 0.48876005918
0.2 -0.5 0.455446885401
-0.3 -0.4 0.424969910624
-0.2 -0.4 0.48049225887
-0.141441362643 -0.4 0.5
-0.1 -0.455121689971 0.5
0.0 -0.499458775777 0.5
0.1 -0.455121689971 0.5
0.2 -0.4 0.48049225887
0.141441362643 -0.4 0.5
0.3 -0.4 0.424969910624
-0.3 -0.3 0.444409459967
-0.2 -0.3 0.499931807261
-0.199795297995 -0.3 0.5
0.2 -0.3 0.499931807261
0.199795297995 -0.3 0.5
0.3 -0.3 0.444409459967
-0.3 -0.2 0.458290347989
-0.224877722888 -0.2 0.5
-0.2 -0.299508729315 0.5
0.2 -0.299508729315 0.5
0.3 -0.2 0.458290347989
0.224877722888 -0.2 0.5
-0.3 -0.1 0.466618646389
-0.239877626031 -0.1 0.5
0.3 -0.1 0.466618646389
0.239877626031 -0.1 0.5
-0.3 0.0 0.469394744132
-0.244877590641 0.0 0.5
0.3 0.0 0.469394744132
0.244877590641 0.0 0.5
-0.3 0.1 0.466618646389
-0.239877626031 0.1 0.5
0.3 0.1 0.466618646389
0.239877626031 0.1 0.5
-0.3 0.2 0.458290347989
-0.224877722888 0.2 0.5
0.3 0.2 0.458290347989
0.224877722888 0.2 0.5
-0.3 0.3 0.444409459967
-0.2 0.3 0.499931807261
-0.2 0.299508729315 0.5
-0.199795297995 0.3 0.5
0.199795297995 0.3 0.5
0.2 0.3 0.499931807261
0.2 0.299508729315 0.5
0.3 0.3 0.444409459967
-0.3 0.4 0.424969910624
-0.2 0.4 0.48049225887
-0.141441362643 0.4 0.5
0.2 0.4 0.48049225887
0.141441362643 0.4 0.5
0.3 0.4 0.424969910624
-0.2 0.5 0.455446885401
-0.1 0.5 0.48876005918
-0.1 0.455121689971 0.5
0.0 0.499458775777 0.5
0.0 0.5 0.499864448372
0.1 0.455121689971 0.5
0.1 0.5 0.48876005918
0.2 0.5 0.455446885401
-0.2 0.6 0.424557939833
-0.1 0.6 0.457871114882
0.0 0.6 0.468975504358
0.1 0.6 0.457871114882
0.2 0.6 0.424557939833
-0.1 0.7 0.420241053168
0.0 0.7 0.431345442079
0.1 0.7 0.420241053168
-0.1 -0.4 0.511269726897
0.0 -0.4 0.520334522431
0.1 -0.4 0.511269726897
-0.1 -0.3 0.527138727285
0.0 -0.3 0.536203522199
0.1 -0.3 0.527138727285
-0.2 -0.2 0.511275656181
-0.1 -0.2 0.538470050846
0.0 -0.2 0.547534846438
0.1 -0.2 0.538470050846
0.2 -0.2 0.511275656181
-0.2 -0.1 0.518074258744
-0.1 -0.1 0.545268653266
0.0 -0.1 0.55433344857
0.1 -0.1 0.545268653266
0.2 -0.1 0.518074258744
-0.2 0.0 0.520340457332
-0.1 0.0 0.547534852665
0.0 0.0 0.556599647874
0.1 0.0 0.547534852665
0.2 0.0 0.520340457332
-0.2 0.1 0.518074258744
-0.1 0.1 0.545268653266
0.0 0.1 0.55433344857
0.1 0.1 0.545268653266
0.2 0.1 0.518074258744
-0.2 0.2 0.511275656181
-0.1 0.2 0.538470050846
0.0 0.2 0.547534846438
0.1 0.2 0.538470050846
0.2 0.2 0.511275656181
-0.1 0.3 0.527138727285
0.0 0.3 0.536203522199
0.1 0.3 0.527138727285
-0.1 0.4 0.511269726897
0.0 0.4 0.520334522431
0.1 0.4 0.511269726897
3 2 1 0
3 1 2 3
3 3 4 1
3 4 3 5
3 5 6 4
3 7 6 5
3 8 9 1
3 9 0 1
3 10 8 1
3 4 10 1
3 11 10 4
3 6 11 4
3 12 11 6
3 12 6 7
3 15 14 13
3 8 16 14
3 15 8 14
3 9 8 15
3 17 16 8
3 10 17 8
3 18 17 10
3 11 18 10
3 19 18 11
3 11 12 19
3 19 12 20
3 21 19 20
3 22 23 14
3 23 13 14
3 24 22 14
3 16 24 14
3 25 24 16
3 17 25 16
3 26 25 17
3 18 26 17
3 27 26 18
3 19 27 18
3 28 27 19
3 28 19 21
3 29 30 22
3 30 23 22
3 31 29 22
3 24 31 22
3 32 31 24
3 25 32 24
3 33 32 25
3 26 33 25
3 34 33 26
3 27 34 26
3 35 34 27
3 35 27 28
3 36 37 29
3 37 30 29
3 38 36 29
3 31 38 29
3 39 38 31
3 32 39 31
3 40 39 32
3 33 40 32
3 41 40 33
3 34 41 33
3 42 41 34
3 42 34 35
3 43 44 36
3 44 37 36
3 45 43 36
3 38 45 36
3 46 45 38
3 39 46 38
3 47 46 39
3 40 47 39
3 48 47 40
3 41 48 40
3 49 48 41
3 49 41 42
3 44 43 50
3 45 51 43
3 52 43 51
3 43 52 50
3 53 51 45
3 46 53 45
3 54 53 46
3 47 54 46
3 54 47 48
3 54 48 55
3 55 48 56
3 49 56 48
3 57 58 51
3 58 52 51
3 59 57 51
3 53 59 51
3 60 59 53
3 54 60 53
3 61 60 54
3 61 54 55
3 58 57 62
3 59 62 57
3 59 63 62
3 60 63 59
3 60 64 63
3 61 64 60
3 67 66 65
3 66 67 68
3 68 69 66
3 69 68 70
3 70 71 69
3 72 71 70
3 75 74 73
3 66 76 74
3 75 66 74
3 65 66 75
3 77 76 66
3 69 77 66
3 78 77 69
3 71 78 69
3 79 78 71
3 71 72 79
3 79 72 80
3 81 79 80
3 82 83 74
3 83 73 74
3 84 82 74
3 76 84 74
3 85 84 76
3 77 85 76
3 86 85 77
3 78 86 77
3 87 86 78
3 79 87 78
3 88 87 79
3 88 79 81
3 91 90 89
3 82 92 90
3 91 82 90
3 83 82 91
3 82 84 92
3 92 2 0
3 92 84 2
3 2 84 3
3 3 84 85
3 3 85 5
3 5 85 86
3 86 87 93
3 86 93 7
3 86 7 5
3 94 93 87
3 87 88 94
3 94 88 95
3 96 94 95
3 97 98 90
3 98 89 90
3 99 97 90
3 92 99 90
3 0 9 99
3 92 0 99
3 12 7 100
3 93 100 7
3 101 100 93
3 94 101 93
3 102 101 94
3 102 94 96
3 103 104 97
3 104 98 97
3 97 99 103
3 103 15 13
3 103 99 15
3 9 15 99
3 20 12 100
3 100 101 105
3 100 105 21
3 100 21 20
3 106 105 101
3 106 101 102
3 107 108 103
3 108 104 103
3 13 23 107
3 103 13 107
3 28 21 109
3 105 109 21
3 110 109 105
3 110 105 106
3 111 112 107
3 112 108 107
3 23 30 111
3 107 23 111
3 35 28 113
3 109 113 28
3 114 113 109
3 114 109 110
3 115 116 111
3 116 112 111
3 30 37 115
3 111 30 115
3 42 35 117
3 113 117 35
3 118 117 113
3 118 113 114
3 119 120 115
3 120 116 115
3 37 44 119
3 115 37 119
3 49 42 121
3 117 121 42
3 122 121 117
3 122 117 118
3 123 124 119
3 124 120 119
3 125 123 119
3 125 119 50
3 44 50 119
3 50 52 125
3 56 126 55
3 121 127 126
3 56 121 126
3 49 121 56
3 128 127 121
3 128 121 122
3 129 130 123
3 130 124 123
3 131 129 123
3 125 131 123
3 52 58 131
3 125 52 131
3 61 55 132
3 126 132 55
3 133 132 126
3 127 133 126
3 134 133 127
3 134 127 128
3 130 129 135
3 131 136 129
3 137 129 136
3 129 137 135
3 138 136 131
3 138 131 62
3 58 62 131
3 139 138 62
3 62 63 139
3 140 139 63
3 63 64 140
3 132 141 140
3 64 132 140
3 61 132 64
3 141 132 133
3 141 133 142
3 142 133 143
3 134 143 133
3 144 145 136
3 145 137 136
3 146 144 136
3 138 146 136
3 147 146 138
3 139 147 138
3 148 147 139
3 140 148 139
3 149 148 140
3 141 149 140
3 150 149 141
3 150 141 142
3 145 144 151
3 146 152 144
3 153 144 152
3 144 153 151
3 154 152 146
3 147 154 146
3 155 154 147
3 148 155 147
3 155 148 149
3 155 149 156
3 156 149 157
3 150 157 149
3 153 152 158
3 154 158 152
3 154 159 158
3 155 159 154
3 155 160 159
3 156 160 155
3 163 162 161
3 162 163 164
3 164 165 162
3 165 164 166
3 166 167 165
3 167 166 168
3 168 169 167
3 169 168 170
3 170 171 169
3 172 171 170
3 175 174 173
3 162 176 174
3 175 162 174
3 161 162 175
3 162 165 176
3 176 67 65
3 176 165 67
3 67 165 68
3 68 165 167
3 68 167 70
3 70 167 169
3 169 171 177
3 169 177 72
3 169 72 70
3 178 177 171
3 171 172 178
3 178 172 179
3 180 178 179
3 181 182 174
3 182 173 174
3 174 176 181
3 181 75 73
3 181 176 75
3 65 75 176
3 80 72 177
3 177 178 183
3 177 183 81
3 177 81 80
3 184 183 178
3 184 178 180
3 185 186 181
3 186 182 181
3 73 83 185
3 181 73 185
3 88 81 187
3 183 187 81
3 188 187 183
3 188 183 184
3 191 190 189
3 89 190 191
3 89 191 186
3 91 89 186
3 186 185 91
3 83 91 185
3 95 88 187
3 192 95 187
3 193 192 187
3 192 96 95
3 187 188 193
3 194 192 193
3 195 196 190
3 196 189 190
3 89 98 195
3 190 89 195
3 102 96 197
3 192 197 96
3 198 197 192
3 198 192 194
3 199 200 195
3 200 196 195
3 98 104 199
3 195 98 199
3 106 102 201
3 197 201 102
3 202 201 197
3 202 197 198
3 203 204 199
3 204 200 199
3 104 108 203
3 199 104 203
3 110 106 205
3 201 205 106
3 206 205 201
3 206 201 202
3 207 208 203
3 208 204 203
3 108 112 207
3 203 108 207
3 114 110 209
3 205 209 110
3 210 209 205
3 210 205 206
3 211 212 207
3 212 208 207
3 112 116 211
3 207 112 211
3 118 114 213
3 209 213 114
3 214 213 209
3 214 209 210
3 215 216 211
3 216 212 211
3 116 120 215
3 211 116 215
3 122 118 217
3 213 217 118
3 218 217 213
3 218 213 214
3 219 220 215
3 220 216 215
3 120 124 219
3 215 120 219
3 128 122 221
3 217 221 122
3 222 221 217
3 222 217 218
3 223 224 219
3 224 220 219
3 124 130 223
3 219 124 223
3 134 128 225
3 221 225 128
3 226 225 221
3 226 221 222
3 224 223 227
3 223 130 228
3 223 228 229
3 223 229 227
3 130 135 228
3 135 137 228
3 143 230 142
3 230 143 225
3 143 134 225
3 230 225 231
3 231 232 230
3 226 231 225
3 233 234 228
3 234 229 228
3 137 145 233
3 228 137 233
3 150 142 235
3 230 235 142
3 236 235 230
3 236 230 232
3 237 238 233
3 238 234 233
3 239 237 233
3 239 233 151
3 145 151 233
3 151 153 239
3 157 240 156
3 235 241 240
3 157 235 240
3 150 235 157
3 242 241 235
3 242 235 236
3 238 237 243
3 239 244 237
3 245 237 244
3 237 245 243
3 246 244 239
3 246 239 158
3 153 158 239
3 247 246 158
3 158 159 247
3 248 247 159
3 159 160 248
3 240 249 248
3 160 240 248
3 156 240 160
3 249 240 241
3 249 241 250
3 250 241 251
3 242 251 241
3 245 244 252
3 246 252 244
3 246 253 252
3 247 253 246
3 247 254 253
3 248 254 247
3 248 255 254
3 249 255 248
3 249 256 255
3 250 256 249
3 259 258 257
3 258 259 260
3 260 261 258
3 261 260 262
3 262 263 261
3 263 262 264
3 264 265 263
3 265 264 266
3 266 267 265
3 268 267 266
3 271 270 269
3 161 270 271
3 161 271 257
3 163 161 257
3 257 258 163
3 163 258 164
3 164 258 261
3 164 261 166
3 166 261 263
3 166 263 168
3 168 263 265
3 168 265 170
3 170 265 267
3 272 170 267
3 273 272 267
3 272 172 170
3 267 268 273
3 274 272 273
3 173 275 269
3 269 175 173
3 175 269 270
3 161 175 270
3 179 172 272
3 180 274 276
3 180 179 274
3 179 272 274
3 279 278 277
3 279 182 278
3 279 275 182
3 275 173 182
3 276 184 180
3 276 280 184
3 280 276 281
3 282 280 281
3 283 284 278
3 284 277 278
3 182 186 283
3 278 182 283
3 188 184 285
3 280 285 184
3 286 285 280
3 286 280 282
3 189 287 284
3 284 191 189
3 191 284 283
3 186 191 283
3 193 188 285
3 194 286 288
3 194 193 286
3 193 285 286
3 289 189 196
3 287 189 289
3 198 194 290
3 290 194 288
3 293 292 291
3 293 200 292
3 293 289 200
3 289 196 200
3 290 202 198
3 290 294 202
3 294 290 295
3 296 294 295
3 297 298 292
3 298 291 292
3 200 204 297
3 292 200 297
3 206 202 299
3 294 299 202
3 300 299 294
3 300 294 296
3 301 302 297
3 302 298 297
3 204 208 301
3 297 204 301
3 210 206 303
3 299 303 206
3 304 303 299
3 304 299 300
3 305 306 301
3 306 302 301
3 208 212 305
3 301 208 305
3 214 210 307
3 303 307 210
3 308 307 303
3 308 303 304
3 309 310 305
3 310 306 305
3 212 216 309
3 305 212 309
3 218 214 311
3 307 311 214
3 312 311 307
3 312 307 308
3 310 309 313
3 314 216 220
3 309 216 314
3 313 309 314
3 222 218 315
3 315 218 311
3 315 311 316
3 312 316 311
3 317 220 224
3 314 220 317
3 226 222 318
3 318 222 315
3 319 317 224
3 320 319 224
3 227 320 224
3 227 229 320
3 231 321 232
3 321 231 322
3 231 226 322
3 322 226 318
3 323 324 320
3 324 319 320
3 229 234 323
3 320 229 323
3 236 232 325
3 321 325 232
3 326 325 321
3 326 321 322
3 324 323 327
3 328 234 238
3 323 234 328
3 327 323 328
3 242 236 329
3 329 236 325
3 329 325 330
3 326 330 325
3 331 328 238
3 332 331 238
3 243 332 238
3 243 245 332
3 251 333 250
3 333 251 334
3 251 242 334
3 334 242 329
3 331 332 335
3 332 245 336
3 332 336 337
3 332 337 335
3 245 252 336
3 338 336 252
3 252 253 338
3 339 338 253
3 253 254 339
3 340 339 254
3 254 255 340
3 341 340 255
3 255 256 341
3 341 256 333
3 256 250 333
3 341 333 342
3 342 343 341
3 334 342 333
3 337 336 344
3 338 344 336
3 338 345 344
3 339 345 338
3 339 346 345
3 340 346 339
3 340 347 346
3 341 347 340
3 341 348 347
3 343 348 341
3 257 349 350
3 350 259 257
3 350 260 259
3 260 350 351
3 351 262 260
3 262 351 352
3 352 264 262
3 264 352 353
3 353 266 264
3 266 353 354
3 268 266 355
3 355 266 354
3 269 356 357
3 357 271 269
3 257 271 357
3 349 257 357
3 268 355 358
3 268 358 273
3 274 273 359
3 359 273 358
3 362 361 360
3 362 275 361
3 362 356 275
3 356 269 275
3 359 276 274
3 359 363 276
3 363 359 364
3 365 363 364
3 277 366 360
3 360 279 277
3 279 360 361
3 275 279 361
3 281 276 363
3 282 365 367
3 282 281 365
3 281 363 365
3 368 277 284
3 366 277 368
3 286 282 369
3 369 282 367
3 372 371 370
3 372 287 371
3 372 368 287
3 368 284 287
3 369 288 286
3 369 373 288
3 373 369 374
3 375 373 374
3 376 377 371
3 377 370 371
3 287 289 376
3 371 287 376
3 290 288 378
3 373 378 288
3 379 378 373
3 379 373 375
3 291 380 377
3 377 293 291
3 293 377 376
3 289 293 376
3 295 290 378
3 296 379 381
3 296 295 379
3 295 378 379
3 382 291 298
3 380 291 382
3 300 296 383
3 383 296 381
3 384 298 302
3 382 298 384
3 304 300 385
3 385 300 383
3 386 302 306
3 384 302 386
3 308 304 387
3 387 304 385
3 388 306 310
3 386 306 388
3 312 308 389
3 389 308 387
3 390 388 310
3 391 390 310
3 313 391 310
3 313 314 391
3 316 392 315
3 392 316 393
3 316 312 393
3 393 312 389
3 394 395 391
3 395 390 391
3 314 317 394
3 391 314 394
3 318 315 396
3 392 396 315
3 397 396 392
3 397 392 393
3 395 394 398
3 399 317 319
3 394 317 399
3 398 394 399
3 322 318 400
3 400 318 396
3 400 396 401
3 397 401 396
3 402 319 324
3 399 319 402
3 326 322 403
3 403 322 400
3 404 402 324
3 405 404 324
3 327 405 324
3 327 328 405
3 330 406 329
3 406 330 407
3 330 326 407
3 407 326 403
3 404 405 408
3 409 328 331
3 405 328 409
3 408 405 409
3 334 329 410
3 410 329 406
3 410 406 411
3 407 411 406
3 412 409 331
3 335 412 331
3 413 335 337
3 412 335 413
3 415 414 343
3 343 342 415
3 415 342 334
3 415 334 410
3 416 413 337
3 344 416 337
3 344 345 416
3 417 416 345
3 345 346 417
3 418 417 346
3 346 347 418
3 419 418 347
3 347 348 419
3 420 419 348
3 420 348 343
3 420 343 414
3 349 421 422
3 422 350 349
3 422 351 350
3 351 422 423
3 352 351 423
3 352 423 424
3 425 353 352
3 424 425 352
3 425 354 353
3 354 425 426
3 355 354 427
3 427 354 426
3 356 428 429
3 429 357 356
3 349 357 429
3 421 349 429
3 355 427 430
3 355 430 358
3 359 358 431
3 431 358 430
3 360 432 433
3 433 362 360
3 356 362 433
3 428 356 433
3 359 431 434
3 359 434 364
3 365 364 435
3 435 364 434
3 436 360 366
3 432 360 436
3 367 365 437
3 437 365 435
3 438 366 368
3 436 366 438
3 369 367 439
3 439 367 437
3 370 440 441
3 441 372 370
3 368 372 441
3 438 368 441
3 369 439 442
3 369 442 374
3 375 374 443
3 443 374 442
3 444 370 377
3 440 370 444
3 379 375 445
3 445 375 443
3 446 377 380
3 444 377 446
3 381 379 447
3 447 379 445
3 448 380 382
3 446 380 448
3 383 381 449
3 449 381 447
3 450 382 384
3 448 382 450
3 385 383 451
3 451 383 449
3 452 384 386
3 450 384 452
3 387 385 453
3 453 385 451
3 454 386 388
3 452 386 454
3 389 387 455
3 455 387 453
3 456 388 390
3 454 388 456
3 393 389 457
3 457 389 455
3 458 390 395
3 456 390 458
3 397 393 459
3 459 393 457
3 460 458 395
3 398 460 395
3 461 398 399
3 460 398 461
3 463 462 400
3 400 401 463
3 463 401 397
3 463 397 459
3 464 399 402
3 461 399 464
3 403 400 465
3 465 400 462
3 466 402 404
3 464 402 466
3 407 403 467
3 467 403 465
3 468 466 404
3 408 468 404
3 469 408 409
3 468 408 469
3 471 470 410
3 410 411 471
3 471 411 407
3 471 407 467
3 472 469 409
3 412 472 409
3 473 412 413
3 472 412 473
3 475 474 414
3 414 415 475
3 475 415 410
3 475 410 470
3 476 473 413
3 416 476 413
3 416 417 476
3 477 476 417
3 477 417 418
3 477 418 478
3 418 419 479
3 418 479 478
3 419 420 479
3 480 479 420
3 480 420 414
3 480 414 474
3 421 481 482
3 482 422 421
3 482 423 422
3 423 482 483
3 423 483 484
3 484 424 423
3 484 485 425
3 424 484 425
3 485 426 425
3 426 485 486
3 427 426 487
3 487 426 486
3 428 488 489
3 489 429 428
3 421 429 489
3 481 421 489
3 427 487 490
3 427 490 430
3 431 430 491
3 491 430 490
3 432 492 493
3 493 433 432
3 428 433 493
3 488 428 493
3 431 491 494
3 431 494 434
3 435 434 495
3 495 434 494
3 496 432 436
3 492 432 496
3 437 435 497
3 497 435 495
3 498 436 438
3 496 436 498
3 439 437 499
3 499 437 497
3 440 500 501
3 501 441 440
3 438 441 501
3 498 438 501
3 439 499 502
3 439 502 442
3 443 442 503
3 503 442 502
3 504 440 444
3 500 440 504
3 445 443 505
3 505 443 503
3 506 444 446
3 504 444 506
3 447 445 507
3 507 445 505
3 508 446 448
3 506 446 508
3 449 447 509
3 509 447 507
3 510 448 450
3 508 448 510
3 451 449 511
3 511 449 509
3 512 450 452
3 510 450 512
3 453 451 513
3 513 451 511
3 514 452 454
3 512 452 514
3 455 453 515
3 515 453 513
3 516 454 456
3 514 454 516
3 457 455 517
3 517 455 515
3 518 456 458
3 516 456 518
3 459 457 519
3 519 457 517
3 520 518 458
3 460 520 458
3 521 460 461
3 520 460 521
3 523 522 462
3 462 463 523
3 523 463 459
3 523 459 519
3 524 461 464
3 521 461 524
3 465 462 525
3 525 462 522
3 526 464 466
3 524 464 526
3 467 465 527
3 527 465 525
3 528 526 466
3 468 528 466
3 529 468 469
3 528 468 529
3 531 530 470
3 470 471 531
3 531 471 467
3 531 467 527
3 532 529 469
3 472 532 469
3 533 472 473
3 532 472 533
3 535 534 474
3 474 475 535
3 535 475 470
3 535 470 530
3 536 533 473
3 476 536 473
3 476 477 536
3 537 536 477
3 538 537 477
3 477 478 538
3 479 539 538
3 479 538 478
3 479 480 539
3 540 539 480
3 540 480 474
3 540 474 534
3 481 541 542
3 542 482 481
3 542 483 482
3 483 542 543
3 543 484 483
3 484 543 544
3 544 485 484
3 485 544 545
3 545 486 485
3 486 545 546
3 487 486 547
3 547 486 546
3 488 548 549
3 549 489 488
3 481 489 549
3 541 481 549
3 487 547 550
3 487 550 490
3 491 490 551
3 551 490 550
3 492 552 493
3 553 493 552
3 553 488 493
3 548 488 553
3 491 551 554
3 491 554 555
3 491 555 494
3 555 495 494
3 556 492 496
3 552 492 556
3 557 552 556
3 552 557 553
3 558 555 554
3 497 495 559
3 559 495 555
3 559 555 558
3 560 496 498
3 556 496 560
3 499 497 561
3 561 497 559
3 500 562 501
3 563 501 562
3 563 498 501
3 560 498 563
3 499 561 564
3 499 564 565
3 499 565 502
3 565 503 502
3 566 500 504
3 500 566 562
3 562 566 567
3 563 562 567
3 565 569 568
3 565 564 569
3 568 505 503
3 568 503 565
3 570 504 506
3 566 504 570
3 571 566 570
3 566 571 567
3 572 568 569
3 507 505 573
3 573 505 568
3 573 568 572
3 574 506 508
3 570 506 574
3 509 507 575
3 575 507 573
3 576 508 510
3 574 508 576
3 511 509 577
3 577 509 575
3 578 510 512
3 576 510 578
3 513 511 579
3 579 511 577
3 580 512 514
3 578 512 580
3 515 513 581
3 581 513 579
3 514 516 580
3 516 582 580
3 583 580 582
3 583 582 584
3 585 586 587
3 586 517 587
3 517 581 587
3 517 515 581
3 588 516 518
3 516 588 582
3 582 588 589
3 584 582 589
3 586 591 590
3 586 585 591
3 590 519 517
3 590 517 586
3 588 518 520
3 592 589 521
3 589 520 521
3 589 588 520
3 591 593 522
3 522 523 591
3 590 591 523
3 590 523 519
3 594 521 524
3 592 521 594
3 525 522 595
3 595 522 593
3 524 526 594
3 526 596 594
3 597 594 596
3 597 596 598
3 599 600 601
3 600 527 601
3 527 595 601
3 527 525 595
3 596 526 528
3 602 598 529
3 598 528 529
3 598 596 528
3 599 603 530
3 530 531 599
3 600 599 531
3 600 531 527
3 604 602 529
3 532 604 529
3 605 532 533
3 604 532 605
3 607 606 534
3 534 535 607
3 607 535 530
3 607 530 603
3 608 605 533
3 536 608 533
3 536 537 608
3 609 608 537
3 537 538 609
3 610 609 538
3 538 539 610
3 611 610 539
3 539 540 611
3 612 611 540
3 612 540 534
3 612 534 606
3 541 613 542
3 542 613 614
3 614 543 542
3 543 614 615
3 615 544 543
3 544 615 616
3 616 545 544
3 545 616 617
3 617 546 545
3 617 547 546
3 548 618 549
3 613 549 618
3 613 541 549
3 619 613 618
3 618 620 619
3 613 619 614
3 619 621 614
3 614 621 615
3 621 622 615
3 615 622 616
3 622 623 616
3 616 623 617
3 623 624 617
3 625 547 617
3 626 625 617
3 624 626 617
3 625 550 547
3 625 551 550
3 627 548 553
3 618 548 627
3 628 618 627
3 618 628 620
3 629 625 626
3 554 551 630
3 630 551 625
3 630 625 629
3 556 631 557
3 632 557 631
3 632 553 557
3 627 553 632
3 554 630 633
3 554 633 634
3 554 634 558
3 634 559 558
3 635 556 560
3 556 635 631
3 631 635 636
3 632 631 636
3 634 638 637
3 634 633 638
3 637 561 559
3 637 559 634
3 639 560 563
3 635 560 639
3 640 635 639
3 635 640 636
3 641 637 638
3 564 561 642
3 642 561 637
3 642 637 641
3 643 563 567
3 639 563 643
3 569 564 644
3 644 564 642
3 570 645 571
3 646 571 645
3 646 567 571
3 643 567 646
3 569 644 647
3 569 647 648
3 569 648 572
3 648 573 572
3 649 570 574
3 570 649 645
3 645 649 650
3 646 645 650
3 648 652 651
3 648 647 652
3 651 575 573
3 651 573 648
3 653 574 576
3 574 653 649
3 649 653 654
3 650 649 654
3 651 656 655
3 651 652 656
3 655 577 575
3 655 575 651
3 657 576 578
3 576 657 653
3 653 657 658
3 654 653 658
3 655 660 659
3 655 656 660
3 659 579 577
3 659 577 655
3 661 578 580
3 578 661 657
3 657 661 662
3 658 657 662
3 659 664 663
3 659 660 664
3 663 581 579
3 663 579 659
3 661 580 583
3 665 662 584
3 662 583 584
3 662 661 583
3 664 666 585
3 585 587 664
3 663 664 587
3 663 587 581
3 667 584 589
3 665 584 667
3 591 585 668
3 668 585 666
3 589 592 667
3 592 669 667
3 670 667 669
3 670 669 671
3 672 673 674
3 673 593 674
3 593 668 674
3 593 591 668
3 675 592 594
3 592 675 669
3 669 675 676
3 671 669 676
3 673 678 677
3 673 672 678
3 677 595 593
3 677 593 673
3 675 594 597
3 679 676 598
3 676 597 598
3 676 675 597
3 678 680 599
3 599 601 678
3 677 678 601
3 677 601 595
3 598 602 679
3 602 681 679
3 682 679 681
3 682 681 683
3 684 685 686
3 685 603 686
3 603 680 686
3 603 599 680
3 681 602 604
3 681 604 687
3 681 687 688
3 604 605 687
3 688 683 681
3 689 688 687
3 687 690 689
3 691 689 690
3 690 692 691
3 693 691 692
3 692 694 693
3 695 693 694
3 694 696 695
3 695 696 606
3 684 695 606
3 684 606 607
3 607 685 684
3 685 607 603
3 687 605 608
3 609 687 608
3 690 687 609
3 610 690 609
3 692 690 610
3 611 692 610
3 694 692 611
3 612 694 611
3 696 694 612
3 696 612 606
3 620 697 619
3 619 697 698
3 698 621 619
3 621 698 699
3 699 622 621
3 622 699 700
3 700 623 622
3 623 700 701
3 701 624 623
3 701 626 624
3 627 702 628
3 702 703 697
3 702 697 628
3 628 697 620
3 698 697 703
3 704 698 703
3 705 698 704
3 698 705 699
3 705 706 699
3 699 706 700
3 706 707 700
3 700 708 701
3 708 700 709
3 707 709 700
3 701 708 710
3 629 701 710
3 701 629 626
3 710 630 629
3 711 627 632
3 627 711 702
3 703 702 711
3 712 703 711
3 713 703 712
3 703 713 704
3 714 708 709
3 708 715 710
3 715 708 716
3 714 716 708
3 715 633 630
3 715 630 710
3 717 632 636
3 632 717 711
3 711 717 718
3 712 711 718
3 715 720 719
3 715 716 720
3 719 638 633
3 719 633 715
3 639 721 640
3 717 640 721
3 717 636 640
3 722 717 721
3 721 723 722
3 717 722 718
3 724 719 720
3 725 638 719
3 726 725 719
3 724 726 719
3 725 641 638
3 725 642 641
3 727 639 643
3 639 727 721
3 721 727 728
3 723 721 728
3 725 730 729
3 725 726 730
3 729 644 642
3 729 642 725
3 731 643 646
3 643 731 727
3 727 731 732
3 728 727 732
3 729 734 733
3 729 730 734
3 733 647 644
3 733 644 729
3 735 646 650
3 646 735 731
3 731 735 736
3 732 731 736
3 733 738 737
3 733 734 738
3 737 652 647
3 737 647 733
3 739 650 654
3 650 739 735
3 735 739 740
3 736 735 740
3 737 742 741
3 737 738 742
3 741 656 652
3 741 652 737
3 743 654 658
3 654 743 739
3 739 743 744
3 740 739 744
3 741 746 745
3 741 742 746
3 745 660 656
3 745 656 741
3 747 658 662
3 658 747 743
3 743 747 748
3 744 743 748
3 745 750 749
3 745 746 750
3 749 664 660
3 749 660 745
3 751 662 665
3 662 751 747
3 747 751 752
3 748 747 752
3 749 754 753
3 749 750 754
3 753 666 664
3 753 664 749
3 755 665 667
3 665 755 751
3 751 755 756
3 752 751 756
3 753 758 757
3 753 754 758
3 757 668 666
3 757 666 753
3 755 667 670
3 755 670 759
3 755 759 760
3 670 671 759
3 760 756 755
3 760 759 761
3 762 763 764
3 764 763 672
3 758 764 672
3 758 672 674
3 674 757 758
3 757 674 668
3 765 671 676
3 671 765 759
3 759 765 766
3 761 759 766
3 763 768 767
3 763 762 768
3 767 678 672
3 767 672 763
3 769 676 679
3 676 769 765
3 765 769 770
3 770 766 765
3 771 766 770
3 771 770 772
3 773 774 775
3 774 776 767
3 774 767 775
3 775 767 768
3 776 680 678
3 776 678 767
3 769 679 682
3 777 770 769
3 683 777 769
3 682 683 769
3 770 777 778
3 778 772 770
3 779 772 778
3 780 779 778
3 778 781 780
3 782 780 781
3 781 783 782
3 783 784 774
3 783 774 782
3 782 774 773
3 784 776 774
3 684 686 784
3 686 776 784
3 776 686 680
3 777 683 688
3 689 777 688
3 778 777 689
3 691 778 689
3 781 778 691
3 693 781 691
3 783 781 693
3 695 783 693
3 784 783 695
3 784 695 684
3 704 785 705
3 705 785 786
3 786 706 705
3 706 786 787
3 787 707 706
3 787 709 707
3 712 788 713
3 788 789 785
3 788 785 713
3 713 785 704
3 785 789 790
3 785 790 786
3 786 790 791
3 786 791 787
3 787 791 792
3 714 787 792
3 787 714 709
3 792 716 714
3 793 712 718
3 712 793 788
3 788 793 794
3 788 794 789
3 789 794 795
3 789 795 790
3 790 795 796
3 790 796 791
3 791 796 797
3 791 797 792
3 797 720 716
3 797 716 792
3 723 798 722
3 798 799 793
3 798 793 722
3 722 793 718
3 794 793 799
3 800 794 799
3 801 794 800
3 794 801 795
3 801 802 795
3 795 802 796
3 802 803 796
3 796 804 797
3 804 796 805
3 803 805 796
3 797 804 806
3 724 797 806
3 797 724 720
3 806 726 724
3 807 723 728
3 723 807 798
3 798 807 808
3 798 808 799
3 799 808 809
3 800 799 809
3 804 811 810
3 804 805 811
3 804 810 812
3 804 812 806
3 812 730 726
3 812 726 806
3 813 728 732
3 728 813 807
3 808 807 813
3 814 808 813
3 815 808 814
3 808 815 809
3 816 810 811
3 810 817 812
3 817 810 818
3 816 818 810
3 817 734 730
3 817 730 812
3 819 732 736
3 732 819 813
3 813 819 820
3 814 813 820
3 817 822 821
3 817 818 822
3 821 738 734
3 821 734 817
3 823 736 740
3 736 823 819
3 819 823 824
3 820 819 824
3 821 826 825
3 821 822 826
3 825 742 738
3 825 738 821
3 827 740 744
3 740 827 823
3 823 827 828
3 824 823 828
3 825 830 829
3 825 826 830
3 829 746 742
3 829 742 825
3 831 744 748
3 744 831 827
3 827 831 832
3 828 827 832
3 829 834 833
3 829 830 834
3 833 750 746
3 833 746 829
3 835 748 752
3 748 835 831
3 831 835 836
3 836 832 831
3 837 832 836
3 837 836 838
3 839 840 841
3 840 842 833
3 840 833 841
3 841 833 834
3 842 754 750
3 842 750 833
3 843 752 756
3 752 843 835
3 835 843 844
3 835 844 836
3 836 844 845
3 838 836 845
3 840 847 846
3 840 839 847
3 840 846 848
3 840 848 842
3 848 758 754
3 848 754 842
3 843 756 760
3 849 844 843
3 761 849 843
3 760 761 843
3 844 849 850
3 850 845 844
3 851 845 850
3 852 851 850
3 850 853 852
3 854 852 853
3 853 855 854
3 855 856 846
3 855 846 854
3 854 846 847
3 856 848 846
3 762 764 856
3 764 848 856
3 848 764 758
3 857 761 766
3 761 857 849
3 849 857 858
3 849 858 850
3 850 858 859
3 850 859 853
3 853 859 860
3 853 860 855
3 855 860 861
3 855 861 856
3 861 768 762
3 861 762 856
3 857 766 771
3 862 858 857
3 772 862 857
3 771 772 857
3 858 862 863
3 858 863 859
3 859 863 864
3 859 864 860
3 864 861 860
3 773 775 864
3 775 861 864
3 861 775 768
3 862 772 779
3 780 862 779
3 863 862 780
3 782 863 780
3 864 863 782
3 864 782 773
3 800 865 801
3 801 865 866
3 866 802 801
3 802 866 867
3 867 803 802
3 867 805 803
3 868 800 809
3 800 868 865
3 865 868 869
3 865 869 866
3 866 869 870
3 866 870 867
3 870 811 805
3 870 805 867
3 814 871 815
3 871 872 868
3 871 868 815
3 815 868 809
3 868 872 873
3 868 873 869
3 869 873 874
3 869 874 870
3 870 874 875
3 816 870 875
3 870 816 811
3 875 818 816
3 876 814 820
3 814 876 871
3 871 876 877
3 871 877 872
3 872 877 878
3 872 878 873
3 873 878 879
3 873 879 874
3 874 879 880
3 874 880 875
3 880 822 818
3 880 818 875
3 881 820 824
3 820 881 876
3 876 881 882
3 876 882 877
3 877 882 883
3 877 883 878
3 878 883 884
3 878 884 879
3 879 884 885
3 879 885 880
3 885 826 822
3 885 822 880
3 886 824 828
3 824 886 881
3 881 886 887
3 881 887 882
3 882 887 888
3 882 888 883
3 883 888 889
3 883 889 884
3 884 889 890
3 884 890 885
3 890 830 826
3 890 826 885
3 891 828 832
3 828 891 886
3 886 891 892
3 886 892 887
3 887 892 893
3 887 893 888
3 888 893 894
3 888 894 889
3 889 894 895
3 889 895 890
3 895 834 830
3 895 830 890
3 891 832 837
3 896 892 891
3 838 896 891
3 837 838 891
3 892 896 897
3 892 897 893
3 893 897 898
3 893 898 894
3 898 895 894
3 839 841 898
3 841 895 898
3 895 841 834
3 899 838 845
3 838 899 896
3 896 899 900
3 896 900 897
3 897 900 901
3 897 901 898
3 901 847 839
3 901 839 898
3 899 845 851
3 852 899 851
3 900 899 852
3 854 900 852
3 901 900 854
3 901 854 847
