ply
format ascii 1.0
comment ism.py generated
element vertex 748.0
property float x
property float y
property float z
element face 1492.0
property list uchar int vertex_indices
end_header
-1.24344978758e-14 -0.6 -0.4
0.0 -0.6 -0.4
0.0 -0.6 -0.4
1.27897692437e-14 -0.6 -0.4
-0.158333333075 -0.5 -0.4
-0.1 -0.5 -0.419444444962
-0.1 -0.563636364252 -0.4
0.0 -0.5 -0.430555555441
0.1 -0.5 -0.419444444962
0.1 -0.563636364252 -0.4
0.158333333075 -0.5 -0.4
-0.22 -0.4 -0.4
-0.2 -0.4 -0.411111111111
-0.2 -0.444444443525 -0.4
-0.1 -0.4 -0.444444443525
0.0 -0.4 -0.455555556475
0.1 -0.4 -0.444444443525
0.2 -0.4 -0.411111111111
0.2 -0.444444443525 -0.4
0.22 -0.4 -0.4
-0.2 -0.3 -0.430555555441
-0.254999998882 -0.3 -0.4
-0.1 -0.3 -0.463888890154
0.0 -0.3 -0.475
0.1 -0.3 -0.463888890154
0.2 -0.3 -0.430555555441
0.254999998882 -0.3 -0.4
-0.2 -0.2 -0.444444443525
-0.28 -0.2 -0.4
-0.1 -0.2 -0.477777778238
0.0 -0.2 -0.488888888889
0.1 -0.2 -0.477777778238
0.2 -0.2 -0.444444443525
0.28 -0.2 -0.4
-0.2 -0.1 -0.452777777203
-0.295000000047 -0.1 -0.4
-0.1 -0.1 -0.486111111025
0.0 -0.1 -0.497222222237
0.1 -0.1 -0.486111111025
0.2 -0.1 -0.452777777203
0.295000000047 -0.1 -0.4
-0.3 0.0 -0.4
-0.3 0.0 -0.4
-0.3 -7.0693451093e-14 -0.4
-0.2 0.0 -0.455555556475
-0.1 0.0 -0.488888888889
0.0 0.0 -0.5
0.1 0.0 -0.488888888889
0.2 0.0 -0.455555556475
0.3 0.0 -0.4
0.3 -2.80608869474e-14 -0.4
0.3 0.0 -0.4
-0.3 7.1054273576e-14 -0.4
-0.2 0.1 -0.452777777203
-0.295000000047 0.1 -0.4
-0.1 0.1 -0.486111111025
0.0 0.1 -0.497222222237
0.1 0.1 -0.486111111025
0.2 0.1 -0.452777777203
0.295000000047 0.1 -0.4
0.3 2.84217094304e-14 -0.4
-0.2 0.2 -0.444444443525
-0.28 0.2 -0.4
-0.1 0.2 -0.477777778238
0.0 0.2 -0.488888888889
0.1 0.2 -0.477777778238
0.2 0.2 -0.444444443525
0.28 0.2 -0.4
-0.2 0.3 -0.430555555441
-0.254999998882 0.3 -0.4
-0.1 0.3 -0.463888890154
0.0 0.3 -0.475
0.1 0.3 -0.463888890154
0.2 0.3 -0.430555555441
0.254999998882 0.3 -0.4
-0.2 0.4 -0.411111111111
-0.22 0.4 -0.4
-0.1 0.4 -0.444444443525
0.0 0.4 -0.455555556475
0.1 0.4 -0.444444443525
0.2 0.4 -0.411111111111
0.22 0.4 -0.4
-0.2 0.444444443525 -0.4
-0.1 0.5 -0.419444444962
-0.158333333075 0.5 -0.4
0.0 0.5 -0.430555555441
0.1 0.5 -0.419444444962
0.158333333075 0.5 -0.4
0.2 0.444444443525 -0.4
-0.1 0.563636364252 -0.4
0.0 0.6 -0.4
-6.7446048746e-15 0.6 -0.4
7.1054273576e-15 0.6 -0.4
0.1 0.563636364252 -0.4
0.0 0.6 -0.4
-9.5895513752e-15 -0.8 -0.3
0.0 -0.8 -0.3
0.0 -0.8 -0.3
9.94759830064e-15 -0.8 -0.3
-0.191666666796 -0.7 -0.3
-0.1 -0.7 -0.339285713906
-0.1 -0.773333333664 -0.3
0.0 -0.7 -0.353571430472
0.1 -0.7 -0.339285713906
0.1 -0.773333333664 -0.3
0.191666666796 -0.7 -0.3
-0.26 -0.6 -0.3
-0.2 -0.6 -0.342857142857
-0.2 -0.692307692308 -0.3
-0.1 -0.6 -0.385714285714
0.1 -0.6 -0.385714285714
0.2 -0.6 -0.342857142857
0.2 -0.692307692308 -0.3
0.26 -0.6 -0.3
-0.3107142855 -0.5 -0.3
-0.3 -0.5 -0.3107142855
-0.3 -0.527272727273 -0.3
-0.2 -0.5 -0.38214285719
0.2 -0.5 -0.38214285719
0.3 -0.5 -0.3107142855
0.3 -0.527272727273 -0.3
0.3107142855 -0.5 -0.3
-0.3 -0.4 -0.342857142857
-0.342857142857 -0.4 -0.3
0.3 -0.4 -0.342857142857
0.342857142857 -0.4 -0.3
-0.3 -0.3 -0.367857141717
-0.367857141717 -0.3 -0.3
0.3 -0.3 -0.367857141717
0.367857141717 -0.3 -0.3
-0.3 -0.2 -0.385714285714
-0.385714285714 -0.2 -0.3
0.3 -0.2 -0.385714285714
0.385714285714 -0.2 -0.3
-0.3 -0.1 -0.396428571642
-0.396428571642 -0.1 -0.3
0.3 -0.1 -0.396428571642
0.396428571642 -0.1 -0.3
-0.4 0.0 -0.3
-0.4 0.0 -0.3
-0.4 -7.0693451093e-14 -0.3
0.4 0.0 -0.3
0.4 -1.38500322322e-14 -0.3
-0.4 7.1054273576e-14 -0.3
-0.3 0.1 -0.396428571642
-0.396428571642 0.1 -0.3
0.3 0.1 -0.396428571642
0.4 1.42108547152e-14 -0.3
0.396428571642 0.1 -0.3
-0.3 0.2 -0.385714285714
-0.385714285714 0.2 -0.3
0.3 0.2 -0.385714285714
0.385714285714 0.2 -0.3
-0.3 0.3 -0.367857141717
-0.367857141717 0.3 -0.3
0.3 0.3 -0.367857141717
0.367857141717 0.3 -0.3
-0.3 0.4 -0.342857142857
-0.342857142857 0.4 -0.3
0.3 0.4 -0.342857142857
0.342857142857 0.4 -0.3
-0.3 0.5 -0.3107142855
-0.3107142855 0.5 -0.3
-0.2 0.5 -0.38214285719
0.2 0.5 -0.38214285719
0.3 0.5 -0.3107142855
0.3107142855 0.5 -0.3
-0.3 0.527272727273 -0.3
-0.2 0.6 -0.342857142857
-0.26 0.6 -0.3
-0.1 0.6 -0.385714285714
0.1 0.6 -0.385714285714
0.2 0.6 -0.342857142857
0.26 0.6 -0.3
0.3 0.527272727273 -0.3
-0.2 0.692307692308 -0.3
-0.1 0.7 -0.339285713906
-0.191666666796 0.7 -0.3
0.0 0.7 -0.353571430472
0.1 0.7 -0.339285713906
0.191666666796 0.7 -0.3
0.2 0.692307692308 -0.3
-0.1 0.773333333664 -0.3
0.0 0.8 -0.3
-3.899658374e-15 0.8 -0.3
4.26325641456e-15 0.8 -0.3
0.1 0.773333333664 -0.3
0.0 0.8 -0.3
-0.075 -0.9 -0.2
0.0 -0.9 -0.214999999581
0.0 -0.915789473684 -0.2
0.075 -0.9 -0.2
-0.22 -0.8 -0.2
-0.2 -0.8 -0.22
-0.2 -0.823529412023 -0.2
-0.1 -0.894117647059 -0.2
-0.1 -0.8 -0.28
0.1 -0.8 -0.28
0.1 -0.894117647059 -0.2
0.2 -0.823529412023 -0.2
0.2 -0.8 -0.22
0.22 -0.8 -0.2
-0.2 -0.7 -0.295000000047
-0.295000000047 -0.7 -0.2
0.2 -0.7 -0.295000000047
0.295000000047 -0.7 -0.2
-0.342857142857 -0.6 -0.2
-0.3 -0.6 -0.26
-0.3 -0.692307692308 -0.2
0.3 -0.6 -0.26
0.3 -0.692307692308 -0.2
0.342857142857 -0.6 -0.2
-0.38214285719 -0.5 -0.2
0.38214285719 -0.5 -0.2
-0.411111111111 -0.4 -0.2
-0.4 -0.4 -0.22
-0.4 -0.444444443525 -0.2
0.4 -0.4 -0.22
0.4 -0.444444443525 -0.2
0.411111111111 -0.4 -0.2
-0.4 -0.3 -0.254999998882
-0.430555555441 -0.3 -0.2
0.4 -0.3 -0.254999998882
0.430555555441 -0.3 -0.2
-0.4 -0.2 -0.28
-0.444444443525 -0.2 -0.2
0.4 -0.2 -0.28
0.444444443525 -0.2 -0.2
-0.4 -0.1 -0.295000000047
-0.452777777203 -0.1 -0.2
0.4 -0.1 -0.295000000047
0.452777777203 -0.1 -0.2
-0.455555556475 0.0 -0.2
0.455555556475 0.0 -0.2
-0.452777777203 0.1 -0.2
-0.4 0.1 -0.295000000047
0.4 0.1 -0.295000000047
0.452777777203 0.1 -0.2
-0.4 0.2 -0.28
-0.444444443525 0.2 -0.2
0.4 0.2 -0.28
0.444444443525 0.2 -0.2
-0.4 0.3 -0.254999998882
-0.430555555441 0.3 -0.2
0.4 0.3 -0.254999998882
0.430555555441 0.3 -0.2
-0.4 0.4 -0.22
-0.411111111111 0.4 -0.2
0.4 0.4 -0.22
0.411111111111 0.4 -0.2
-0.4 0.444444443525 -0.2
-0.38214285719 0.5 -0.2
0.38214285719 0.5 -0.2
0.4 0.444444443525 -0.2
-0.342857142857 0.6 -0.2
-0.3 0.6 -0.26
0.3 0.6 -0.26
0.342857142857 0.6 -0.2
-0.3 0.692307692308 -0.2
-0.2 0.7 -0.295000000047
-0.295000000047 0.7 -0.2
0.2 0.7 -0.295000000047
0.3 0.692307692308 -0.2
0.295000000047 0.7 -0.2
-0.2 0.8 -0.22
-0.22 0.8 -0.2
-0.1 0.8 -0.28
0.1 0.8 -0.28
0.2 0.8 -0.22
0.22 0.8 -0.2
-0.2 0.823529412023 -0.2
-0.1 0.894117647059 -0.2
0.0 0.9 -0.214999999581
-0.075 0.9 -0.2
0.1 0.894117647059 -0.2
0.075 0.9 -0.2
0.2 0.823529412023 -0.2
0.0 0.915789473684 -0.2
-0.191666666796 -0.9 -0.1
-0.1 -0.9 -0.191666666796
-0.1 -0.957894737255 -0.1
0.0 -0.978947369453 -0.1
0.1 -0.957894737255 -0.1
0.1 -0.9 -0.191666666796
0.191666666796 -0.9 -0.1
-0.28 -0.8 -0.1
-0.2 -0.894117647059 -0.1
0.2 -0.894117647059 -0.1
0.28 -0.8 -0.1
-0.339285713906 -0.7 -0.1
-0.3 -0.7 -0.191666666796
-0.3 -0.773333333664 -0.1
0.3 -0.7 -0.191666666796
0.3 -0.773333333664 -0.1
0.339285713906 -0.7 -0.1
-0.385714285714 -0.6 -0.1
0.385714285714 -0.6 -0.1
-0.419444444962 -0.5 -0.1
-0.4 -0.5 -0.158333333075
-0.4 -0.563636364252 -0.1
0.4 -0.5 -0.158333333075
0.4 -0.563636364252 -0.1
0.419444444962 -0.5 -0.1
-0.444444443525 -0.4 -0.1
0.444444443525 -0.4 -0.1
-0.463888890154 -0.3 -0.1
0.463888890154 -0.3 -0.1
-0.477777778238 -0.2 -0.1
0.477777778238 -0.2 -0.1
-0.486111111025 -0.1 -0.1
0.486111111025 -0.1 -0.1
-0.488888888889 0.0 -0.1
0.488888888889 0.0 -0.1
-0.486111111025 0.1 -0.1
0.486111111025 0.1 -0.1
-0.477777778238 0.2 -0.1
0.477777778238 0.2 -0.1
-0.463888890154 0.3 -0.1
0.463888890154 0.3 -0.1
-0.444444443525 0.4 -0.1
0.444444443525 0.4 -0.1
-0.419444444962 0.5 -0.1
-0.4 0.5 -0.158333333075
0.4 0.5 -0.158333333075
0.419444444962 0.5 -0.1
-0.4 0.563636364252 -0.1
-0.385714285714 0.6 -0.1
0.385714285714 0.6 -0.1
0.4 0.563636364252 -0.1
-0.339285713906 0.7 -0.1
-0.3 0.7 -0.191666666796
0.3 0.7 -0.191666666796
0.339285713906 0.7 -0.1
-0.3 0.773333333664 -0.1
-0.28 0.8 -0.1
0.28 0.8 -0.1
0.3 0.773333333664 -0.1
-0.2 0.894117647059 -0.1
-0.191666666796 0.9 -0.1
-0.1 0.9 -0.191666666796
0.1 0.9 -0.191666666796
0.2 0.894117647059 -0.1
0.191666666796 0.9 -0.1
-0.1 0.957894737255 -0.1
0.0 0.978947369453 -0.1
0.1 0.957894737255 -0.1
-0.214999999581 -0.9 0.0
-0.2 -0.9 -0.075
-0.2 -0.915789473684 0.0
-0.1 -0.978947369453 0.0
0.0 -1.0 0.0
0.1 -0.978947369453 0.0
0.2 -0.915789473684 0.0
0.2 -0.9 -0.075
0.214999999581 -0.9 0.0
-0.3 -0.8 0.0
-0.3 -0.8 -9.5895513752e-15
-0.3 -0.8 0.0
0.3 -0.8 0.0
-0.353571430472 -0.7 0.0
0.353571430472 -0.7 0.0
-0.4 -0.6 0.0
-0.4 -0.6 -1.24344978758e-14
-0.4 -0.6 0.0
0.4 -0.6 0.0
-0.430555555441 -0.5 0.0
0.430555555441 -0.5 0.0
-0.455555556475 -0.4 0.0
0.455555556475 -0.4 0.0
-0.475 -0.3 0.0
0.475 -0.3 0.0
-0.488888888889 -0.2 0.0
0.488888888889 -0.2 0.0
-0.497222222237 -0.1 0.0
0.497222222237 -0.1 0.0
-0.5 0.0 0.0
0.5 0.0 0.0
-0.497222222237 0.1 0.0
0.497222222237 0.1 0.0
-0.488888888889 0.2 0.0
0.488888888889 0.2 0.0
-0.475 0.3 0.0
0.475 0.3 0.0
-0.455555556475 0.4 0.0
0.455555556475 0.4 0.0
-0.430555555441 0.5 0.0
0.430555555441 0.5 0.0
-0.4 0.6 0.0
-0.4 0.6 -6.7446048746e-15
0.4 0.6 0.0
0.4 0.6 0.0
-0.4 0.6 0.0
-0.353571430472 0.7 0.0
0.353571430472 0.7 0.0
-0.3 0.8 0.0
-0.3 0.8 -3.899658374e-15
0.3 0.8 0.0
0.3 0.8 0.0
-0.3 0.8 0.0
-0.2 0.9 -0.075
-0.214999999581 0.9 0.0
0.2 0.9 -0.075
0.214999999581 0.9 0.0
-0.2 0.915789473684 0.0
-0.1 0.978947369453 0.0
0.0 1.0 0.0
0.1 0.978947369453 0.0
0.2 0.915789473684 0.0
-0.2 -0.9 0.075
-0.1 -0.957894737255 0.1
-0.191666666796 -0.9 0.1
0.0 -0.978947369453 0.1
0.1 -0.957894737255 0.1
0.191666666796 -0.9 0.1
0.2 -0.9 0.075
-0.3 -0.8 9.94759830064e-15
-0.2 -0.894117647059 0.1
-0.28 -0.8 0.1
0.2 -0.894117647059 0.1
0.28 -0.8 0.1
-0.339285713906 -0.7 0.1
-0.3 -0.773333333664 0.1
0.3 -0.773333333664 0.1
0.339285713906 -0.7 0.1
-0.4 -0.6 1.27897692437e-14
-0.385714285714 -0.6 0.1
0.385714285714 -0.6 0.1
-0.419444444962 -0.5 0.1
-0.4 -0.563636364252 0.1
0.4 -0.563636364252 0.1
0.419444444962 -0.5 0.1
-0.444444443525 -0.4 0.1
0.444444443525 -0.4 0.1
-0.463888890154 -0.3 0.1
0.463888890154 -0.3 0.1
-0.477777778238 -0.2 0.1
0.477777778238 -0.2 0.1
-0.486111111025 -0.1 0.1
0.486111111025 -0.1 0.1
-0.488888888889 0.0 0.1
0.488888888889 0.0 0.1
-0.486111111025 0.1 0.1
0.486111111025 0.1 0.1
-0.477777778238 0.2 0.1
0.477777778238 0.2 0.1
-0.463888890154 0.3 0.1
0.463888890154 0.3 0.1
-0.444444443525 0.4 0.1
0.444444443525 0.4 0.1
-0.419444444962 0.5 0.1
0.419444444962 0.5 0.1
-0.4 0.6 7.1054273576e-15
-0.4 0.563636364252 0.1
-0.385714285714 0.6 0.1
0.385714285714 0.6 0.1
0.4 0.563636364252 0.1
-0.339285713906 0.7 0.1
0.339285713906 0.7 0.1
-0.3 0.8 4.26325641456e-15
-0.3 0.773333333664 0.1
-0.28 0.8 0.1
0.28 0.8 0.1
0.3 0.773333333664 0.1
-0.2 0.9 0.075
-0.2 0.894117647059 0.1
-0.191666666796 0.9 0.1
0.191666666796 0.9 0.1
0.2 0.9 0.075
0.2 0.894117647059 0.1
-0.1 0.957894737255 0.1
0.0 0.978947369453 0.1
0.1 0.957894737255 0.1
-0.1 -0.9 0.191666666796
0.0 -0.915789473684 0.2
-0.075 -0.9 0.2
0.075 -0.9 0.2
0.1 -0.9 0.191666666796
-0.22 -0.8 0.2
-0.2 -0.823529412023 0.2
-0.1 -0.894117647059 0.2
0.1 -0.894117647059 0.2
0.2 -0.823529412023 0.2
0.22 -0.8 0.2
-0.3 -0.7 0.191666666796
-0.295000000047 -0.7 0.2
0.295000000047 -0.7 0.2
0.3 -0.7 0.191666666796
-0.342857142857 -0.6 0.2
-0.3 -0.692307692308 0.2
0.3 -0.692307692308 0.2
0.342857142857 -0.6 0.2
-0.4 -0.5 0.158333333075
-0.38214285719 -0.5 0.2
0.38214285719 -0.5 0.2
0.4 -0.5 0.158333333075
-0.411111111111 -0.4 0.2
-0.4 -0.444444443525 0.2
0.4 -0.444444443525 0.2
0.411111111111 -0.4 0.2
-0.430555555441 -0.3 0.2
0.430555555441 -0.3 0.2
-0.444444443525 -0.2 0.2
0.444444443525 -0.2 0.2
-0.452777777203 -0.1 0.2
0.452777777203 -0.1 0.2
-0.455555556475 0.0 0.2
0.455555556475 0.0 0.2
-0.452777777203 0.1 0.2
0.452777777203 0.1 0.2
-0.444444443525 0.2 0.2
0.444444443525 0.2 0.2
-0.430555555441 0.3 0.2
0.430555555441 0.3 0.2
-0.411111111111 0.4 0.2
0.411111111111 0.4 0.2
-0.4 0.5 0.158333333075
-0.4 0.444444443525 0.2
-0.38214285719 0.5 0.2
0.38214285719 0.5 0.2
0.4 0.5 0.158333333075
0.4 0.444444443525 0.2
-0.342857142857 0.6 0.2
0.342857142857 0.6 0.2
-0.3 0.7 0.191666666796
-0.3 0.692307692308 0.2
-0.295000000047 0.7 0.2
0.295000000047 0.7 0.2
0.3 0.7 0.191666666796
0.3 0.692307692308 0.2
-0.22 0.8 0.2
0.22 0.8 0.2
-0.2 0.823529412023 0.2
-0.1 0.894117647059 0.2
-0.1 0.9 0.191666666796
-0.075 0.9 0.2
0.075 0.9 0.2
0.1 0.9 0.191666666796
0.1 0.894117647059 0.2
0.2 0.823529412023 0.2
0.0 0.915789473684 0.2
0.0 -0.9 0.214999999581
-0.2 -0.8 0.22
-0.1 -0.8 0.28
0.0 -0.8 0.3
0.1 -0.8 0.28
0.2 -0.8 0.22
-0.2 -0.7 0.295000000047
-0.191666666796 -0.7 0.3
-0.1 -0.773333333664 0.3
0.1 -0.773333333664 0.3
0.2 -0.7 0.295000000047
0.191666666796 -0.7 0.3
-0.3 -0.6 0.26
-0.2 -0.692307692308 0.3
-0.26 -0.6 0.3
0.2 -0.692307692308 0.3
0.3 -0.6 0.26
0.26 -0.6 0.3
-0.3107142855 -0.5 0.3
-0.3 -0.527272727273 0.3
0.3 -0.527272727273 0.3
0.3107142855 -0.5 0.3
-0.4 -0.4 0.22
-0.342857142857 -0.4 0.3
0.342857142857 -0.4 0.3
0.4 -0.4 0.22
-0.4 -0.3 0.254999998882
-0.367857141717 -0.3 0.3
0.4 -0.3 0.254999998882
0.367857141717 -0.3 0.3
-0.4 -0.2 0.28
-0.385714285714 -0.2 0.3
0.4 -0.2 0.28
0.385714285714 -0.2 0.3
-0.4 -0.1 0.295000000047
-0.396428571642 -0.1 0.3
0.4 -0.1 0.295000000047
0.396428571642 -0.1 0.3
-0.4 0.0 0.3
-0.4 -2.80608869474e-14 0.3
0.4 0.0 0.3
0.4 0.0 0.3
-0.4 0.1 0.295000000047
-0.4 2.84217094304e-14 0.3
-0.396428571642 0.1 0.3
0.4 0.1 0.295000000047
0.396428571642 0.1 0.3
-0.4 0.2 0.28
-0.385714285714 0.2 0.3
0.4 0.2 0.28
0.385714285714 0.2 0.3
-0.4 0.3 0.254999998882
-0.367857141717 0.3 0.3
0.4 0.3 0.254999998882
0.367857141717 0.3 0.3
-0.4 0.4 0.22
-0.342857142857 0.4 0.3
0.4 0.4 0.22
0.342857142857 0.4 0.3
-0.3107142855 0.5 0.3
0.3107142855 0.5 0.3
-0.3 0.6 0.26
-0.3 0.527272727273 0.3
-0.26 0.6 0.3
0.26 0.6 0.3
0.3 0.6 0.26
0.3 0.527272727273 0.3
-0.2 0.7 0.295000000047
-0.2 0.692307692308 0.3
-0.191666666796 0.7 0.3
0.191666666796 0.7 0.3
0.2 0.7 0.295000000047
0.2 0.692307692308 0.3
-0.2 0.8 0.22
-0.1 0.8 0.28
-0.1 0.773333333664 0.3
0.0 0.8 0.3
0.0 0.8 0.3
0.1 0.773333333664 0.3
0.1 0.8 0.28
0.2 0.8 0.22
0.0 0.9 0.214999999581
-0.1 -0.7 0.339285713906
0.0 -0.7 0.353571430472
0.1 -0.7 0.339285713906
-0.2 -0.6 0.342857142857
-0.1 -0.6 0.385714285714
0.0 -0.6 0.4
0.1 -0.6 0.385714285714
0.2 -0.6 0.342857142857
-0.3 -0.5 0.3107142855
-0.2 -0.5 0.38214285719
-0.158333333075 -0.5 0.4
-0.1 -0.563636364252 0.4
0.1 -0.563636364252 0.4
0.2 -0.5 0.38214285719
0.158333333075 -0.5 0.4
0.3 -0.5 0.3107142855
-0.3 -0.4 0.342857142857
-0.22 -0.4 0.4
-0.2 -0.444444443525 0.4
0.2 -0.444444443525 0.4
0.3 -0.4 0.342857142857
0.22 -0.4 0.4
-0.3 -0.3 0.367857141717
-0.254999998882 -0.3 0.4
0.3 -0.3 0.367857141717
0.254999998882 -0.3 0.4
-0.3 -0.2 0.385714285714
-0.28 -0.2 0.4
0.3 -0.2 0.385714285714
0.28 -0.2 0.4
-0.3 -0.1 0.396428571642
-0.295000000047 -0.1 0.4
0.3 -0.1 0.396428571642
0.295000000047 -0.1 0.4
-0.4 0.0 0.3
-0.3 -1.38500322322e-14 0.4
-0.3 0.0 0.4
0.3 0.0 0.4
0.3 0.0 0.4
-0.3 0.1 0.396428571642
-0.3 1.42108547152e-14 0.4
-0.295000000047 0.1 0.4
0.3 0.1 0.396428571642
0.295000000047 0.1 0.4
-0.3 0.2 0.385714285714
-0.28 0.2 0.4
0.3 0.2 0.385714285714
0.28 0.2 0.4
-0.3 0.3 0.367857141717
-0.254999998882 0.3 0.4
0.3 0.3 0.367857141717
0.254999998882 0.3 0.4
-0.3 0.4 0.342857142857
-0.22 0.4 0.4
0.3 0.4 0.342857142857
0.22 0.4 0.4
-0.3 0.5 0.3107142855
-0.2 0.5 0.38214285719
-0.2 0.444444443525 0.4
-0.158333333075 0.5 0.4
0.158333333075 0.5 0.4
0.2 0.5 0.38214285719
0.2 0.444444443525 0.4
0.3 0.5 0.3107142855
-0.2 0.6 0.342857142857
-0.1 0.6 0.385714285714
-0.1 0.563636364252 0.4
0.0 0.6 0.4
0.0 0.6 0.4
0.1 0.563636364252 0.4
0.1 0.6 0.385714285714
0.2 0.6 0.342857142857
-0.1 0.7 0.339285713906
0.0 0.7 0.353571430472
0.1 0.7 0.339285713906
-0.1 -0.5 0.419444444962
0.0 -0.5 0.430555555441
0.1 -0.5 0.419444444962
-0.2 -0.4 0.411111111111
-0.1 -0.4 0.444444443525
0.0 -0.4 0.455555556475
0.1 -0.4 0.444444443525
0.2 -0.4 0.411111111111
-0.2 -0.3 0.430555555441
-0.1 -0.3 0.463888890154
0.0 -0.3 0.475
0.1 -0.3 0.463888890154
0.2 -0.3 0.430555555441
-0.2 -0.2 0.444444443525
-0.1 -0.2 0.477777778238
0.0 -0.2 0.488888888889
0.1 -0.2 0.477777778238
0.2 -0.2 0.444444443525
-0.2 -0.1 0.452777777203
-0.1 -0.1 0.486111111025
0.0 -0.1 0.497222222237
0.1 -0.1 0.486111111025
0.2 -0.1 0.452777777203
-0.2 0.0 0.455555556475
-0.1 0.0 0.488888888889
0.0 0.0 0.5
0.1 0.0 0.488888888889
0.2 0.0 0.455555556475
-0.2 0.1 0.452777777203
-0.1 0.1 0.486111111025
0.0 0.1 0.497222222237
0.1 0.1 0.486111111025
0.2 0.1 0.452777777203
-0.2 0.2 0.444444443525
-0.1 0.2 0.477777778238
0.0 0.2 0.488888888889
0.1 0.2 0.477777778238
0.2 0.2 0.444444443525
-0.2 0.3 0.430555555441
-0.1 0.3 0.463888890154
0.0 0.3 0.475
0.1 0.3 0.463888890154
0.2 0.3 0.430555555441
-0.2 0.4 0.411111111111
-0.1 0.4 0.444444443525
0.0 0.4 0.455555556475
0.1 0.4 0.444444443525
0.2 0.4 0.411111111111
-0.1 0.5 0.419444444962
0.0 0.5 0.430555555441
0.1 0.5 0.419444444962
3 2 1 0
3 3 1 2
3 6 5 4
3 1 7 5
3 6 1 5
3 0 1 6
3 8 7 1
3 1 3 8
3 8 3 9
3 10 8 9
3 13 12 11
3 5 14 12
3 13 5 12
3 4 5 13
3 15 14 5
3 7 15 5
3 16 15 7
3 8 16 7
3 17 16 8
3 8 10 17
3 17 10 18
3 19 17 18
3 20 21 12
3 21 11 12
3 22 20 12
3 14 22 12
3 23 22 14
3 15 23 14
3 24 23 15
3 16 24 15
3 25 24 16
3 17 25 16
3 26 25 17
3 26 17 19
3 27 28 20
3 28 21 20
3 29 27 20
3 22 29 20
3 30 29 22
3 23 30 22
3 31 30 23
3 24 31 23
3 32 31 24
3 25 32 24
3 33 32 25
3 33 25 26
3 34 35 27
3 35 28 27
3 36 34 27
3 29 36 27
3 37 36 29
3 30 37 29
3 38 37 30
3 31 38 30
3 39 38 31
3 32 39 31
3 40 39 32
3 40 32 33
3 43 42 41
3 34 44 42
3 43 34 42
3 35 34 43
3 45 44 34
3 36 45 34
3 36 37 45
3 45 37 46
3 37 38 47
3 37 47 46
3 48 47 38
3 39 48 38
3 49 48 39
3 39 40 49
3 49 40 50
3 51 49 50
3 41 42 52
3 44 53 42
3 54 42 53
3 42 54 52
3 55 53 44
3 45 55 44
3 56 55 45
3 56 45 46
3 47 57 56
3 46 47 56
3 58 57 47
3 48 58 47
3 58 48 49
3 58 49 59
3 59 49 60
3 51 60 49
3 61 62 53
3 62 54 53
3 63 61 53
3 55 63 53
3 64 63 55
3 56 64 55
3 65 64 56
3 57 65 56
3 66 65 57
3 58 66 57
3 67 66 58
3 67 58 59
3 68 69 61
3 69 62 61
3 70 68 61
3 63 70 61
3 71 70 63
3 64 71 63
3 72 71 64
3 65 72 64
3 73 72 65
3 66 73 65
3 74 73 66
3 74 66 67
3 75 76 68
3 76 69 68
3 77 75 68
3 70 77 68
3 78 77 70
3 71 78 70
3 79 78 71
3 72 79 71
3 80 79 72
3 73 80 72
3 81 80 73
3 81 73 74
3 76 75 82
3 77 83 75
3 84 75 83
3 75 84 82
3 85 83 77
3 78 85 77
3 86 85 78
3 79 86 78
3 86 79 80
3 86 80 87
3 87 80 88
3 81 88 80
3 84 83 89
3 85 90 83
3 91 83 90
3 83 91 89
3 90 85 86
3 90 86 92
3 92 86 93
3 87 93 86
3 91 90 94
3 92 94 90
3 97 96 95
3 98 96 97
3 101 100 99
3 96 102 100
3 101 96 100
3 95 96 101
3 103 102 96
3 96 98 103
3 103 98 104
3 105 103 104
3 108 107 106
3 100 109 107
3 108 100 107
3 99 100 108
3 100 102 109
3 109 2 0
3 109 102 2
3 102 103 110
3 102 110 3
3 102 3 2
3 111 110 103
3 103 105 111
3 111 105 112
3 113 111 112
3 116 115 114
3 107 117 115
3 116 107 115
3 106 107 116
3 107 109 117
3 117 6 4
3 117 109 6
3 0 6 109
3 9 3 110
3 110 111 118
3 110 118 10
3 110 10 9
3 119 118 111
3 111 113 119
3 119 113 120
3 121 119 120
3 122 123 115
3 123 114 115
3 115 117 122
3 122 13 11
3 122 117 13
3 4 13 117
3 18 10 118
3 118 119 124
3 118 124 19
3 118 19 18
3 125 124 119
3 125 119 121
3 126 127 122
3 127 123 122
3 11 21 126
3 122 11 126
3 26 19 128
3 124 128 19
3 129 128 124
3 129 124 125
3 130 131 126
3 131 127 126
3 21 28 130
3 126 21 130
3 33 26 132
3 128 132 26
3 133 132 128
3 133 128 129
3 134 135 130
3 135 131 130
3 28 35 134
3 130 28 134
3 40 33 136
3 132 136 33
3 137 136 132
3 137 132 133
3 140 139 138
3 41 139 140
3 41 140 135
3 43 41 135
3 135 134 43
3 35 43 134
3 50 40 136
3 141 50 136
3 142 141 136
3 141 51 50
3 136 137 142
3 138 139 143
3 139 41 144
3 139 144 145
3 139 145 143
3 41 52 144
3 52 54 144
3 60 146 59
3 146 60 141
3 60 51 141
3 146 141 147
3 147 148 146
3 149 150 144
3 150 145 144
3 54 62 149
3 144 54 149
3 67 59 151
3 146 151 59
3 152 151 146
3 152 146 148
3 153 154 149
3 154 150 149
3 62 69 153
3 149 62 153
3 74 67 155
3 151 155 67
3 156 155 151
3 156 151 152
3 157 158 153
3 158 154 153
3 69 76 157
3 153 69 157
3 81 74 159
3 155 159 74
3 160 159 155
3 160 155 156
3 161 162 157
3 162 158 157
3 163 161 157
3 163 157 82
3 76 82 157
3 82 84 163
3 88 164 87
3 159 165 164
3 88 159 164
3 81 159 88
3 166 165 159
3 166 159 160
3 162 161 167
3 163 168 161
3 169 161 168
3 161 169 167
3 170 168 163
3 170 163 89
3 84 89 163
3 89 91 170
3 93 171 92
3 164 172 171
3 93 164 171
3 87 164 93
3 172 164 165
3 172 165 173
3 173 165 174
3 166 174 165
3 169 168 175
3 170 176 168
3 177 168 176
3 168 177 175
3 178 176 170
3 178 170 94
3 91 94 170
3 171 179 178
3 94 171 178
3 92 171 94
3 179 171 172
3 179 172 180
3 180 172 181
3 173 181 172
3 177 176 182
3 178 183 176
3 184 176 183
3 176 184 182
3 183 178 179
3 183 179 185
3 185 179 186
3 180 186 179
3 184 183 187
3 185 187 183
3 190 189 188
3 191 189 190
3 194 193 192
3 193 194 195
3 195 196 193
3 95 196 195
3 95 195 188
3 97 95 188
3 188 189 97
3 197 97 189
3 198 197 189
3 197 98 97
3 189 191 198
3 197 198 199
3 199 200 197
3 201 200 199
3 202 203 193
3 203 192 193
3 193 196 202
3 202 101 99
3 202 196 101
3 95 101 196
3 104 98 197
3 197 200 204
3 197 204 105
3 197 105 104
3 205 204 200
3 205 200 201
3 208 207 206
3 106 207 208
3 106 208 203
3 108 106 203
3 203 202 108
3 99 108 202
3 112 105 204
3 209 112 204
3 210 209 204
3 209 113 112
3 204 205 210
3 211 209 210
3 114 212 206
3 206 116 114
3 116 206 207
3 106 116 207
3 120 113 209
3 121 211 213
3 121 120 211
3 120 209 211
3 216 215 214
3 216 123 215
3 216 212 123
3 212 114 123
3 213 125 121
3 213 217 125
3 217 213 218
3 219 217 218
3 220 221 215
3 221 214 215
3 123 127 220
3 215 123 220
3 129 125 222
3 217 222 125
3 223 222 217
3 223 217 219
3 224 225 220
3 225 221 220
3 127 131 224
3 220 127 224
3 133 129 226
3 222 226 129
3 227 226 222
3 227 222 223
3 228 229 224
3 229 225 224
3 131 135 228
3 224 131 228
3 137 133 230
3 226 230 133
3 231 230 226
3 231 226 227
3 138 232 229
3 229 140 138
3 140 229 228
3 135 140 228
3 142 137 230
3 141 231 233
3 141 142 231
3 142 230 231
3 234 232 138
3 235 234 138
3 143 235 138
3 143 145 235
3 147 236 148
3 236 147 237
3 147 141 237
3 237 141 233
3 238 239 235
3 239 234 235
3 145 150 238
3 235 145 238
3 152 148 240
3 236 240 148
3 241 240 236
3 241 236 237
3 242 243 238
3 243 239 238
3 150 154 242
3 238 150 242
3 156 152 244
3 240 244 152
3 245 244 240
3 245 240 241
3 246 247 242
3 247 243 242
3 154 158 246
3 242 154 246
3 160 156 248
3 244 248 156
3 249 248 244
3 249 244 245
3 247 246 250
3 251 158 162
3 246 158 251
3 250 246 251
3 166 160 252
3 252 160 248
3 252 248 253
3 249 253 248
3 254 251 162
3 255 254 162
3 167 255 162
3 167 169 255
3 174 256 173
3 256 174 257
3 174 166 257
3 257 166 252
3 254 255 258
3 255 169 259
3 255 259 260
3 255 260 258
3 169 175 259
3 175 177 259
3 181 261 180
3 261 181 256
3 181 173 256
3 261 256 262
3 262 263 261
3 257 262 256
3 264 265 259
3 265 260 259
3 266 264 259
3 266 259 182
3 177 182 259
3 182 184 266
3 186 267 185
3 261 268 267
3 186 261 267
3 180 261 186
3 269 268 261
3 269 261 263
3 265 264 270
3 266 270 264
3 266 271 270
3 266 184 272
3 266 272 273
3 266 273 271
3 184 187 272
3 272 187 267
3 187 185 267
3 272 267 274
3 274 275 272
3 268 274 267
3 268 276 274
3 269 276 268
3 273 272 277
3 275 277 272
3 280 279 278
3 280 281 190
3 279 280 190
3 188 279 190
3 190 281 282
3 283 191 190
3 282 283 190
3 284 283 282
3 192 285 286
3 286 194 192
3 195 194 286
3 195 286 278
3 195 278 279
3 188 195 279
3 198 191 283
3 287 199 198
3 283 287 198
3 287 283 284
3 201 199 288
3 288 199 287
3 291 290 289
3 291 203 290
3 291 285 203
3 285 192 203
3 288 205 201
3 288 292 205
3 292 288 293
3 294 292 293
3 206 295 289
3 289 208 206
3 208 289 290
3 203 208 290
3 210 205 292
3 211 294 296
3 211 210 294
3 210 292 294
3 299 298 297
3 299 212 298
3 299 295 212
3 295 206 212
3 296 213 211
3 296 300 213
3 300 296 301
3 302 300 301
3 214 303 297
3 297 216 214
3 216 297 298
3 212 216 298
3 218 213 300
3 219 302 304
3 219 218 302
3 218 300 302
3 305 214 221
3 303 214 305
3 223 219 306
3 306 219 304
3 307 221 225
3 305 221 307
3 227 223 308
3 308 223 306
3 309 225 229
3 307 225 309
3 231 227 310
3 310 227 308
3 311 229 232
3 309 229 311
3 233 231 312
3 312 231 310
3 313 232 234
3 311 232 313
3 237 233 314
3 314 233 312
3 315 234 239
3 313 234 315
3 241 237 316
3 316 237 314
3 317 239 243
3 315 239 317
3 245 241 318
3 318 241 316
3 319 243 247
3 317 243 319
3 249 245 320
3 320 245 318
3 321 319 247
3 322 321 247
3 250 322 247
3 250 251 322
3 253 323 252
3 323 253 324
3 253 249 324
3 324 249 320
3 321 322 325
3 326 251 254
3 322 251 326
3 325 322 326
3 257 252 327
3 327 252 323
3 327 323 328
3 324 328 323
3 329 326 254
3 330 329 254
3 258 330 254
3 258 260 330
3 262 331 263
3 331 262 332
3 262 257 332
3 332 257 327
3 329 330 333
3 334 260 265
3 330 260 334
3 333 330 334
3 269 263 335
3 335 263 331
3 335 331 336
3 332 336 331
3 337 334 265
3 270 337 265
3 337 270 271
3 339 338 337
3 337 271 339
3 271 273 339
3 274 340 275
3 274 276 341
3 274 341 340
3 342 340 341
3 341 276 269
3 341 269 335
3 338 339 343
3 277 344 343
3 277 343 339
3 339 273 277
3 345 344 277
3 277 275 345
3 345 275 340
3 342 345 340
3 348 347 346
3 348 349 280
3 347 348 280
3 278 347 280
3 281 280 349
3 281 349 350
3 351 282 281
3 350 351 281
3 282 351 352
3 353 284 282
3 352 353 282
3 354 353 352
3 357 356 355
3 285 356 357
3 285 357 346
3 286 285 346
3 346 347 286
3 278 286 347
3 287 284 353
3 358 287 353
3 358 288 287
3 353 354 358
3 289 359 355
3 355 291 289
3 291 355 356
3 285 291 356
3 293 288 358
3 294 358 360
3 294 293 358
3 363 362 361
3 363 295 362
3 363 359 295
3 359 289 295
3 296 294 364
3 364 294 360
3 297 365 361
3 361 299 297
3 299 361 362
3 295 299 362
3 296 364 301
3 302 301 366
3 366 301 364
3 367 297 303
3 365 297 367
3 304 302 368
3 368 302 366
3 369 303 305
3 367 303 369
3 306 304 370
3 370 304 368
3 371 305 307
3 369 305 371
3 308 306 372
3 372 306 370
3 373 307 309
3 371 307 373
3 310 308 374
3 374 308 372
3 375 373 311
3 373 309 311
3 374 312 310
3 374 376 312
3 377 311 313
3 375 311 377
3 314 312 378
3 378 312 376
3 379 313 315
3 377 313 379
3 316 314 380
3 380 314 378
3 381 315 317
3 379 315 381
3 318 316 382
3 382 316 380
3 383 317 319
3 381 317 383
3 320 318 384
3 384 318 382
3 385 319 321
3 383 319 385
3 324 320 386
3 386 320 384
3 387 385 321
3 388 387 321
3 325 388 321
3 325 326 388
3 390 389 327
3 327 328 390
3 390 328 324
3 390 324 386
3 387 388 391
3 392 326 329
3 388 326 392
3 391 388 392
3 332 327 393
3 393 327 389
3 394 392 329
3 395 394 329
3 333 395 329
3 333 334 395
3 397 396 335
3 335 336 397
3 397 336 332
3 397 332 393
3 394 395 398
3 395 334 399
3 395 399 400
3 395 400 398
3 334 337 399
3 337 338 399
3 341 401 342
3 401 341 402
3 341 335 402
3 402 335 396
3 400 399 403
3 343 404 403
3 343 403 399
3 399 338 343
3 404 343 344
3 404 344 405
3 344 345 406
3 344 406 405
3 407 406 345
3 345 342 407
3 407 342 401
3 402 407 401
3 346 408 348
3 409 349 348
3 408 409 348
3 409 408 410
3 349 409 411
3 411 350 349
3 411 412 351
3 350 411 351
3 352 351 412
3 412 413 414
3 414 352 412
3 414 354 352
3 355 415 357
3 408 357 415
3 408 346 357
3 416 408 415
3 415 417 416
3 408 416 410
3 418 414 413
3 358 354 414
3 419 358 414
3 418 419 414
3 420 355 359
3 415 355 420
3 421 415 420
3 415 421 417
3 422 358 419
3 360 358 423
3 423 358 422
3 361 424 363
3 425 363 424
3 425 359 363
3 420 359 425
3 364 360 426
3 426 360 423
3 427 361 365
3 424 361 427
3 428 424 427
3 424 428 425
3 364 426 429
3 366 364 430
3 430 364 429
3 431 365 367
3 427 365 431
3 368 366 432
3 432 366 430
3 433 367 369
3 431 367 433
3 370 368 434
3 434 368 432
3 435 369 371
3 433 369 435
3 372 370 436
3 436 370 434
3 437 371 373
3 435 371 437
3 374 372 438
3 438 372 436
3 439 373 375
3 437 373 439
3 374 438 440
3 374 440 376
3 441 439 377
3 439 375 377
3 440 442 378
3 378 376 440
3 443 377 379
3 441 377 443
3 380 378 444
3 444 378 442
3 445 379 381
3 443 379 445
3 382 380 446
3 446 380 444
3 447 381 383
3 445 381 447
3 384 382 448
3 448 382 446
3 449 383 385
3 447 383 449
3 386 384 450
3 450 384 448
3 385 387 449
3 387 451 449
3 452 449 451
3 452 451 453
3 455 454 389
3 389 390 455
3 455 390 386
3 455 386 450
3 451 387 391
3 456 453 392
3 453 391 392
3 453 451 391
3 393 389 457
3 457 389 454
3 392 394 456
3 394 458 456
3 459 456 458
3 459 458 460
3 462 461 396
3 396 397 462
3 462 397 393
3 462 393 457
3 458 394 398
3 458 398 463
3 458 463 464
3 398 400 463
3 464 460 458
3 464 463 465
3 466 467 468
3 467 402 468
3 402 461 468
3 402 396 461
3 463 400 403
3 403 404 469
3 403 469 463
3 465 463 469
3 470 469 404
3 404 405 470
3 406 471 470
3 406 470 405
3 471 406 407
3 466 471 407
3 467 466 407
3 467 407 402
3 410 472 409
3 473 411 409
3 472 473 409
3 473 472 474
3 412 411 473
3 473 475 476
3 476 412 473
3 476 413 412
3 417 477 478
3 478 416 417
3 416 478 479
3 479 410 416
3 472 410 479
3 472 479 474
3 480 476 475
3 480 481 418
3 476 480 418
3 418 413 476
3 419 418 482
3 482 418 481
3 420 483 421
3 484 421 483
3 484 417 421
3 477 417 484
3 419 482 485
3 419 485 486
3 419 486 422
3 486 423 422
3 487 420 425
3 483 420 487
3 488 483 487
3 483 488 484
3 489 486 485
3 426 423 490
3 490 423 486
3 490 486 489
3 427 491 428
3 492 428 491
3 492 425 428
3 487 425 492
3 426 490 493
3 426 493 494
3 426 494 429
3 494 430 429
3 495 427 431
3 491 427 495
3 496 491 495
3 491 496 492
3 497 494 493
3 432 430 498
3 498 430 494
3 498 494 497
3 499 431 433
3 495 431 499
3 434 432 500
3 500 432 498
3 501 433 435
3 499 433 501
3 436 434 502
3 502 434 500
3 503 435 437
3 501 435 503
3 438 436 504
3 504 436 502
3 505 437 439
3 503 437 505
3 440 438 506
3 506 438 504
3 507 439 441
3 505 439 507
3 442 440 508
3 508 440 506
3 509 441 443
3 507 441 509
3 444 442 510
3 510 442 508
3 511 443 445
3 509 443 511
3 446 444 512
3 512 444 510
3 513 445 447
3 511 445 513
3 448 446 514
3 514 446 512
3 447 449 513
3 449 515 513
3 516 513 515
3 516 515 517
3 518 519 520
3 519 450 520
3 450 514 520
3 450 448 514
3 515 449 452
3 521 517 453
3 517 452 453
3 517 515 452
3 518 522 454
3 454 455 518
3 519 518 455
3 519 455 450
3 453 456 521
3 456 523 521
3 524 521 523
3 524 523 525
3 526 527 528
3 527 457 528
3 457 522 528
3 457 454 522
3 523 456 459
3 529 525 460
3 525 459 460
3 525 523 459
3 526 530 461
3 461 462 526
3 527 526 462
3 527 462 457
3 531 529 460
3 464 531 460
3 532 531 464
3 464 465 533
3 464 533 532
3 532 533 534
3 535 536 537
3 468 538 537
3 468 537 536
3 468 536 466
3 538 468 461
3 538 461 530
3 533 465 469
3 469 470 539
3 469 539 533
3 534 533 539
3 539 470 471
3 535 539 471
3 536 535 471
3 536 471 466
3 474 540 473
3 540 475 473
3 477 541 478
3 478 541 542
3 542 479 478
3 540 479 542
3 540 474 479
3 543 540 542
3 544 475 540
3 543 544 540
3 544 480 475
3 480 544 545
3 545 481 480
3 545 482 481
3 546 477 484
3 477 546 541
3 542 541 546
3 547 542 546
3 548 542 547
3 542 548 543
3 549 544 543
3 544 550 545
3 550 544 551
3 549 551 544
3 550 485 482
3 550 482 545
3 487 552 488
3 546 488 552
3 546 484 488
3 553 546 552
3 552 554 553
3 546 553 547
3 555 550 551
3 556 485 550
3 557 556 550
3 555 557 550
3 556 489 485
3 556 490 489
3 558 487 492
3 552 487 558
3 559 552 558
3 552 559 554
3 560 556 557
3 493 490 561
3 561 490 556
3 561 556 560
3 495 562 496
3 563 496 562
3 563 492 496
3 558 492 563
3 493 561 564
3 493 564 565
3 493 565 497
3 565 498 497
3 566 495 499
3 495 566 562
3 562 566 567
3 563 562 567
3 565 569 568
3 565 564 569
3 568 500 498
3 568 498 565
3 570 499 501
3 499 570 566
3 566 570 571
3 567 566 571
3 568 573 572
3 568 569 573
3 572 502 500
3 572 500 568
3 574 501 503
3 501 574 570
3 570 574 575
3 571 570 575
3 572 577 576
3 572 573 577
3 576 504 502
3 576 502 572
3 578 503 505
3 574 503 578
3 579 574 578
3 574 579 575
3 576 581 580
3 576 577 581
3 580 506 504
3 580 504 576
3 505 507 578
3 507 582 578
3 583 578 582
3 583 582 584
3 580 586 585
3 580 581 586
3 585 508 506
3 585 506 580
3 587 507 509
3 507 587 582
3 582 587 588
3 584 582 588
3 585 590 589
3 585 586 590
3 589 510 508
3 589 508 585
3 591 509 511
3 509 591 587
3 587 591 592
3 588 587 592
3 589 594 593
3 589 590 594
3 593 512 510
3 593 510 589
3 595 511 513
3 511 595 591
3 591 595 596
3 592 591 596
3 593 598 597
3 593 594 598
3 597 514 512
3 597 512 593
3 595 513 516
3 599 596 517
3 596 516 517
3 596 595 516
3 598 600 518
3 518 520 598
3 597 598 520
3 597 520 514
3 517 521 599
3 521 601 599
3 602 599 601
3 602 601 603
3 604 605 606
3 605 522 606
3 522 600 606
3 522 518 600
3 601 521 524
3 601 524 607
3 601 607 608
3 524 525 607
3 608 603 601
3 608 607 609
3 610 611 612
3 612 611 526
3 604 612 526
3 604 526 528
3 528 605 604
3 605 528 522
3 613 525 529
3 525 613 607
3 607 613 614
3 614 609 607
3 615 609 614
3 616 615 614
3 614 617 616
3 618 616 617
3 617 619 618
3 619 620 611
3 619 611 618
3 618 611 610
3 620 530 526
3 620 526 611
3 613 529 531
3 532 613 531
3 614 613 532
3 621 617 614
3 534 621 614
3 532 534 614
3 621 619 617
3 535 537 621
3 537 619 621
3 538 619 537
3 620 619 538
3 620 538 530
3 621 534 539
3 621 539 535
3 547 622 548
3 622 623 543
3 622 543 548
3 543 623 624
3 549 543 624
3 624 551 549
3 554 625 553
3 625 626 622
3 625 622 553
3 553 622 547
3 622 626 627
3 622 627 623
3 623 627 628
3 623 628 624
3 624 628 629
3 555 624 629
3 624 555 551
3 629 557 555
3 558 630 559
3 630 631 625
3 630 625 559
3 559 625 554
3 626 625 631
3 632 626 631
3 633 626 632
3 626 633 627
3 627 634 628
3 628 635 629
3 635 628 636
3 634 636 628
3 629 635 637
3 560 629 637
3 629 560 557
3 637 561 560
3 638 558 563
3 558 638 630
3 631 630 638
3 639 631 638
3 640 631 639
3 631 640 632
3 641 635 636
3 635 642 637
3 642 635 643
3 641 643 635
3 642 564 561
3 642 561 637
3 644 563 567
3 563 644 638
3 638 644 645
3 639 638 645
3 642 647 646
3 642 643 647
3 646 569 564
3 646 564 642
3 648 567 571
3 567 648 644
3 644 648 649
3 645 644 649
3 646 651 650
3 646 647 651
3 650 573 569
3 650 569 646
3 652 571 575
3 571 652 648
3 648 652 653
3 649 648 653
3 650 655 654
3 650 651 655
3 654 577 573
3 654 573 650
3 578 656 579
3 652 579 656
3 652 575 579
3 657 652 656
3 656 658 657
3 652 657 653
3 654 660 659
3 654 655 660
3 659 581 577
3 659 577 654
3 656 578 583
3 656 583 661
3 656 661 662
3 583 584 661
3 662 658 656
3 662 661 663
3 659 665 664
3 659 660 665
3 664 586 581
3 664 581 659
3 666 584 588
3 584 666 661
3 661 666 667
3 663 661 667
3 664 669 668
3 664 665 669
3 668 590 586
3 668 586 664
3 670 588 592
3 588 670 666
3 666 670 671
3 667 666 671
3 668 673 672
3 668 669 673
3 672 594 590
3 672 590 668
3 674 592 596
3 592 674 670
3 670 674 675
3 671 670 675
3 672 677 676
3 672 673 677
3 676 598 594
3 676 594 672
3 678 596 599
3 596 678 674
3 674 678 679
3 679 675 674
3 680 675 679
3 680 679 681
3 682 683 684
3 683 685 676
3 683 676 684
3 684 676 677
3 685 600 598
3 685 598 676
3 678 599 602
3 686 679 678
3 603 686 678
3 602 603 678
3 679 686 687
3 687 681 679
3 688 681 687
3 689 688 687
3 687 690 689
3 691 689 690
3 690 692 691
3 692 693 683
3 692 683 691
3 691 683 682
3 693 685 683
3 604 606 693
3 606 685 693
3 685 606 600
3 686 603 608
3 694 687 686
3 609 694 686
3 608 609 686
3 687 694 695
3 687 695 690
3 690 695 696
3 690 696 692
3 696 693 692
3 610 612 696
3 612 693 696
3 693 612 604
3 694 609 615
3 616 694 615
3 695 694 616
3 618 695 616
3 696 695 618
3 696 618 610
3 632 697 633
3 633 697 698
3 698 627 633
3 627 698 699
3 699 634 627
3 699 636 634
3 639 700 640
3 700 701 697
3 700 697 640
3 640 697 632
3 697 701 702
3 697 702 698
3 698 702 703
3 698 703 699
3 699 703 704
3 641 699 704
3 699 641 636
3 704 643 641
3 705 639 645
3 639 705 700
3 700 705 706
3 700 706 701
3 701 706 707
3 701 707 702
3 702 707 708
3 702 708 703
3 703 708 709
3 703 709 704
3 709 647 643
3 709 643 704
3 710 645 649
3 645 710 705
3 705 710 711
3 705 711 706
3 706 711 712
3 706 712 707
3 707 712 713
3 707 713 708
3 708 713 714
3 708 714 709
3 714 651 647
3 714 647 709
3 715 649 653
3 649 715 710
3 710 715 716
3 710 716 711
3 711 716 717
3 711 717 712
3 712 717 718
3 712 718 713
3 713 718 719
3 713 719 714
3 719 655 651
3 719 651 714
3 658 720 715
3 658 715 657
3 657 715 653
3 715 720 721
3 715 721 716
3 717 716 721
3 722 717 721
3 717 723 718
3 723 717 722
3 718 723 724
3 718 724 719
3 724 660 655
3 724 655 719
3 725 720 658
3 663 725 658
3 662 663 658
3 720 725 726
3 720 726 721
3 721 726 727
3 727 722 721
3 727 728 723
3 727 723 722
3 723 728 729
3 723 729 724
3 729 665 660
3 729 660 724
3 730 663 667
3 663 730 725
3 725 730 731
3 725 731 726
3 726 731 732
3 726 732 727
3 727 732 733
3 727 733 728
3 728 733 734
3 728 734 729
3 734 669 665
3 734 665 729
3 735 667 671
3 667 735 730
3 730 735 736
3 730 736 731
3 731 736 737
3 731 737 732
3 732 737 738
3 732 738 733
3 733 738 739
3 733 739 734
3 739 673 669
3 739 669 734
3 740 671 675
3 671 740 735
3 735 740 741
3 735 741 736
3 736 741 742
3 736 742 737
3 737 742 743
3 737 743 738
3 738 743 744
3 738 744 739
3 744 677 673
3 744 673 739
3 740 675 680
3 745 741 740
3 681 745 740
3 680 681 740
3 741 745 746
3 741 746 742
3 742 746 747
3 742 747 743
3 747 744 743
3 682 684 747
3 684 744 747
3 744 684 677
3 745 681 688
3 689 745 688
3 746 745 689
3 691 746 689
3 747 746 691
3 747 691 682
