ply
format ascii 1.0
comment ism.py generated
element vertex 854.0
property float x
property float y
property float z
element face 1704.0
property list uchar int vertex_indices
end_header
-0.0525048722399 -0.3 -0.5
0.0 -0.3 -0.504767066791
0.0 -0.329998072613 -0.5
0.0525048722399 -0.3 -0.5
-0.125835491573 -0.2 -0.5
-0.1 -0.2 -0.50703703429
-0.1 -0.262004386514 -0.5
0.0 -0.2 -0.5161163187
0.1 -0.2 -0.50703703429
0.1 -0.262004386514 -0.5
0.125835491573 -0.2 -0.5
-0.1 -0.1 -0.51384650098
-0.15083549975 -0.1 -0.5
0.0 -0.1 -0.522925784698
0.1 -0.1 -0.51384650098
0.15083549975 -0.1 -0.5
-0.1 0.0 -0.516116320277
-0.159168830526 0.0 -0.5
0.0 0.0 -0.525195606697
0.1 0.0 -0.516116320277
0.159168830526 0.0 -0.5
-0.1 0.1 -0.51384650098
-0.15083549975 0.1 -0.5
0.0 0.1 -0.522925784698
0.1 0.1 -0.51384650098
0.15083549975 0.1 -0.5
-0.1 0.2 -0.50703703429
-0.125835491573 0.2 -0.5
0.0 0.2 -0.5161163187
0.1 0.2 -0.50703703429
0.125835491573 0.2 -0.5
-0.1 0.262004386514 -0.5
0.0 0.3 -0.504767066791
-0.0525048722399 0.3 -0.5
0.0525048722399 0.3 -0.5
0.1 0.262004386514 -0.5
0.0 0.329998072613 -0.5
-0.158689673413 -0.6 -0.4
-0.1 -0.6 -0.419557964675
-0.1 -0.653166250559 -0.4
0.0 -0.683362504128 -0.4
0.0 -0.6 -0.430666086904
0.1 -0.653166250559 -0.4
0.1 -0.6 -0.419557964675
0.158689673413 -0.6 -0.4
-0.23049537219 -0.5 -0.4
-0.2 -0.5 -0.41693737147
-0.2 -0.555163802401 -0.4
-0.1 -0.5 -0.450261743899
0.0 -0.5 -0.461369865873
0.1 -0.5 -0.450261743899
0.2 -0.5 -0.41693737147
0.2 -0.555163802401 -0.4
0.23049537219 -0.5 -0.4
-0.2 -0.4 -0.441957543939
-0.275543654717 -0.4 -0.4
-0.1 -0.4 -0.47528191426
0.0 -0.4 -0.486390037483
0.1 -0.4 -0.47528191426
0.2 -0.4 -0.441957543939
0.275543654717 -0.4 -0.4
-0.307534757294 -0.3 -0.4
-0.3 -0.3 -0.405859020559
-0.3 -0.330135478764 -0.4
-0.2 -0.3 -0.46139981191
-0.1 -0.3 -0.494724182973
0.1 -0.3 -0.494724182973
0.2 -0.3 -0.46139981191
0.3 -0.3 -0.405859020559
0.3 -0.330135478764 -0.4
0.307534757294 -0.3 -0.4
-0.3 -0.2 -0.419744353812
-0.325391430602 -0.2 -0.4
-0.2 -0.2 -0.475285144844
0.2 -0.2 -0.475285144844
0.3 -0.2 -0.419744353812
0.325391430602 -0.2 -0.4
-0.3 -0.1 -0.428075447642
-0.336105299771 -0.1 -0.4
-0.2 -0.1 -0.483616239773
0.2 -0.1 -0.483616239773
0.3 -0.1 -0.428075447642
0.336105299771 -0.1 -0.4
-0.3 0.0 -0.430852477631
-0.339676585365 0.0 -0.4
-0.2 0.0 -0.486393270423
0.2 0.0 -0.486393270423
0.3 0.0 -0.430852477631
0.339676585365 0.0 -0.4
-0.3 0.1 -0.428075447642
-0.336105299771 0.1 -0.4
-0.2 0.1 -0.483616239773
0.2 0.1 -0.483616239773
0.3 0.1 -0.428075447642
0.336105299771 0.1 -0.4
-0.3 0.2 -0.419744353812
-0.325391430602 0.2 -0.4
-0.2 0.2 -0.475285144844
0.2 0.2 -0.475285144844
0.3 0.2 -0.419744353812
0.325391430602 0.2 -0.4
-0.3 0.3 -0.405859020559
-0.307534757294 0.3 -0.4
-0.2 0.3 -0.46139981191
-0.1 0.3 -0.494724182973
0.1 0.3 -0.494724182973
0.2 0.3 -0.46139981191
0.3 0.3 -0.405859020559
0.307534757294 0.3 -0.4
-0.3 0.330135478764 -0.4
-0.2 0.4 -0.441957543939
-0.275543654717 0.4 -0.4
-0.1 0.4 -0.47528191426
0.0 0.4 -0.486390037483
0.1 0.4 -0.47528191426
0.2 0.4 -0.441957543939
0.275543654717 0.4 -0.4
0.3 0.330135478764 -0.4
-0.2 0.5 -0.41693737147
-0.23049537219 0.5 -0.4
-0.1 0.5 -0.450261743899
0.0 0.5 -0.461369865873
0.1 0.5 -0.450261743899
0.2 0.5 -0.41693737147
0.23049537219 0.5 -0.4
-0.2 0.555163802401 -0.4
-0.1 0.6 -0.419557964675
-0.158689673413 0.6 -0.4
0.0 0.6 -0.430666086904
0.1 0.6 -0.419557964675
0.158689673413 0.6 -0.4
0.2 0.555163802401 -0.4
-0.1 0.653166250559 -0.4
0.0 0.683362504128 -0.4
0.1 0.653166250559 -0.4
-0.149316654198 -0.8 -0.3
-0.1 -0.8 -0.321134881094
-0.1 -0.830069363253 -0.3
0.0 -0.850393370181 -0.3
0.0 -0.8 -0.335420034818
0.1 -0.830069363253 -0.3
0.1 -0.8 -0.321134881094
0.149316654198 -0.8 -0.3
-0.248985757806 -0.7 -0.3
-0.2 -0.7 -0.334988566616
-0.2 -0.761698273696 -0.3
-0.1 -0.7 -0.377844028513
0.0 -0.7 -0.392129182855
0.1 -0.7 -0.377844028513
0.2 -0.7 -0.334988566616
0.2 -0.761698273696 -0.3
0.248985757806 -0.7 -0.3
-0.310870270366 -0.6 -0.3
-0.3 -0.6 -0.310870270366
-0.3 -0.62297780273 -0.3
-0.2 -0.6 -0.382296267509
0.2 -0.6 -0.382296267509
0.3 -0.6 -0.310870270366
0.3 -0.62297780273 -0.3
0.310870270366 -0.6 -0.3
-0.3 -0.5 -0.350355627078
-0.350355627078 -0.5 -0.3
0.3 -0.5 -0.350355627078
0.350355627078 -0.5 -0.3
-0.3 -0.4 -0.382531812434
-0.382531812434 -0.4 -0.3
0.3 -0.4 -0.382531812434
0.382531812434 -0.4 -0.3
-0.405859020559 -0.3 -0.3
-0.4 -0.3 -0.307534757294
-0.4 -0.330135478764 -0.3
0.4 -0.3 -0.307534757294
0.4 -0.330135478764 -0.3
0.405859020559 -0.3 -0.3
-0.4 -0.2 -0.325391430602
-0.419744353812 -0.2 -0.3
0.4 -0.2 -0.325391430602
0.419744353812 -0.2 -0.3
-0.4 -0.1 -0.336105299771
-0.428075447642 -0.1 -0.3
0.4 -0.1 -0.336105299771
0.428075447642 -0.1 -0.3
-0.4 0.0 -0.339676585365
-0.430852477631 0.0 -0.3
0.4 0.0 -0.339676585365
0.430852477631 0.0 -0.3
-0.4 0.1 -0.336105299771
-0.428075447642 0.1 -0.3
0.4 0.1 -0.336105299771
0.428075447642 0.1 -0.3
-0.4 0.2 -0.325391430602
-0.419744353812 0.2 -0.3
0.4 0.2 -0.325391430602
0.419744353812 0.2 -0.3
-0.4 0.3 -0.307534757294
-0.405859020559 0.3 -0.3
0.4 0.3 -0.307534757294
0.405859020559 0.3 -0.3
-0.4 0.330135478764 -0.3
-0.3 0.4 -0.382531812434
-0.382531812434 0.4 -0.3
0.3 0.4 -0.382531812434
0.4 0.330135478764 -0.3
0.382531812434 0.4 -0.3
-0.3 0.5 -0.350355627078
-0.350355627078 0.5 -0.3
0.3 0.5 -0.350355627078
0.350355627078 0.5 -0.3
-0.3 0.6 -0.310870270366
-0.310870270366 0.6 -0.3
-0.2 0.6 -0.382296267509
0.2 0.6 -0.382296267509
0.3 0.6 -0.310870270366
0.310870270366 0.6 -0.3
-0.3 0.62297780273 -0.3
-0.2 0.7 -0.334988566616
-0.248985757806 0.7 -0.3
-0.1 0.7 -0.377844028513
0.0 0.7 -0.392129182855
0.1 0.7 -0.377844028513
0.2 0.7 -0.334988566616
0.248985757806 0.7 -0.3
0.3 0.62297780273 -0.3
-0.2 0.761698273696 -0.3
-0.1 0.8 -0.321134881094
-0.149316654198 0.8 -0.3
0.0 0.8 -0.335420034818
0.1 0.8 -0.321134881094
0.149316654198 0.8 -0.3
0.2 0.761698273696 -0.3
-0.1 0.830069363253 -0.3
0.0 0.850393370181 -0.3
0.1 0.830069363253 -0.3
-0.151974203609 -0.9 -0.2
-0.1 -0.9 -0.231184424496
-0.1 -0.923771496029 -0.2
0.0 -0.939017195561 -0.2
0.0 -0.9 -0.251184359096
0.1 -0.923771496029 -0.2
0.1 -0.9 -0.231184424496
0.151974203609 -0.9 -0.2
-0.269590087134 -0.8 -0.2
-0.2 -0.8 -0.269590087134
-0.2 -0.87071769829 -0.2
0.2 -0.8 -0.269590087134
0.2 -0.87071769829 -0.2
0.269590087134 -0.8 -0.2
-0.334988566616 -0.7 -0.2
-0.3 -0.7 -0.248985757806
-0.3 -0.761698273696 -0.2
0.3 -0.7 -0.248985757806
0.3 -0.761698273696 -0.2
0.334988566616 -0.7 -0.2
-0.382296267509 -0.6 -0.2
0.382296267509 -0.6 -0.2
-0.41693737147 -0.5 -0.2
-0.4 -0.5 -0.23049537219
-0.4 -0.555163802401 -0.2
0.4 -0.5 -0.23049537219
0.4 -0.555163802401 -0.2
0.41693737147 -0.5 -0.2
-0.4 -0.4 -0.275543654717
-0.441957543939 -0.4 -0.2
0.4 -0.4 -0.275543654717
0.441957543939 -0.4 -0.2
-0.46139981191 -0.3 -0.2
0.46139981191 -0.3 -0.2
-0.475285144844 -0.2 -0.2
0.475285144844 -0.2 -0.2
-0.483616239773 -0.1 -0.2
0.483616239773 -0.1 -0.2
-0.486393270423 0.0 -0.2
0.486393270423 0.0 -0.2
-0.483616239773 0.1 -0.2
0.483616239773 0.1 -0.2
-0.475285144844 0.2 -0.2
0.475285144844 0.2 -0.2
-0.46139981191 0.3 -0.2
0.46139981191 0.3 -0.2
-0.441957543939 0.4 -0.2
-0.4 0.4 -0.275543654717
0.4 0.4 -0.275543654717
0.441957543939 0.4 -0.2
-0.4 0.5 -0.23049537219
-0.41693737147 0.5 -0.2
0.4 0.5 -0.23049537219
0.41693737147 0.5 -0.2
-0.4 0.555163802401 -0.2
-0.382296267509 0.6 -0.2
0.382296267509 0.6 -0.2
0.4 0.555163802401 -0.2
-0.334988566616 0.7 -0.2
-0.3 0.7 -0.248985757806
0.3 0.7 -0.248985757806
0.334988566616 0.7 -0.2
-0.3 0.761698273696 -0.2
-0.2 0.8 -0.269590087134
-0.269590087134 0.8 -0.2
0.2 0.8 -0.269590087134
0.3 0.761698273696 -0.2
0.269590087134 0.8 -0.2
-0.2 0.87071769829 -0.2
-0.1 0.9 -0.231184424496
-0.151974203609 0.9 -0.2
0.0 0.9 -0.251184359096
0.1 0.9 -0.231184424496
0.2 0.87071769829 -0.2
0.151974203609 0.9 -0.2
-0.1 0.923771496029 -0.2
0.0 0.939017195561 -0.2
0.1 0.923771496029 -0.2
-0.231184424496 -0.9 -0.1
-0.2 -0.9 -0.151974203609
-0.2 -0.923771496029 -0.1
-0.1 -0.969508601898 -0.1
0.0 -0.984754300949 -0.1
0.1 -0.969508601898 -0.1
0.2 -0.923771496029 -0.1
0.2 -0.9 -0.151974203609
0.231184424496 -0.9 -0.1
-0.321134881094 -0.8 -0.1
-0.3 -0.8 -0.149316654198
-0.3 -0.830069363253 -0.1
0.3 -0.8 -0.149316654198
0.3 -0.830069363253 -0.1
0.321134881094 -0.8 -0.1
-0.377844028513 -0.7 -0.1
0.377844028513 -0.7 -0.1
-0.419557964675 -0.6 -0.1
-0.4 -0.6 -0.158689673413
-0.4 -0.653166250559 -0.1
0.4 -0.6 -0.158689673413
0.4 -0.653166250559 -0.1
0.419557964675 -0.6 -0.1
-0.450261743899 -0.5 -0.1
0.450261743899 -0.5 -0.1
-0.47528191426 -0.4 -0.1
0.47528191426 -0.4 -0.1
-0.494724182973 -0.3 -0.1
0.494724182973 -0.3 -0.1
-0.50703703429 -0.2 -0.1
-0.5 -0.2 -0.125835491573
-0.5 -0.262004386514 -0.1
0.5 -0.2 -0.125835491573
0.5 -0.262004386514 -0.1
0.50703703429 -0.2 -0.1
-0.5 -0.1 -0.15083549975
-0.51384650098 -0.1 -0.1
0.5 -0.1 -0.15083549975
0.51384650098 -0.1 -0.1
-0.5 0.0 -0.159168830526
-0.516116320277 0.0 -0.1
0.5 0.0 -0.159168830526
0.516116320277 0.0 -0.1
-0.5 0.1 -0.15083549975
-0.51384650098 0.1 -0.1
0.5 0.1 -0.15083549975
0.51384650098 0.1 -0.1
-0.5 0.2 -0.125835491573
-0.50703703429 0.2 -0.1
0.5 0.2 -0.125835491573
0.50703703429 0.2 -0.1
-0.5 0.262004386514 -0.1
-0.494724182973 0.3 -0.1
0.494724182973 0.3 -0.1
0.5 0.262004386514 -0.1
-0.47528191426 0.4 -0.1
0.47528191426 0.4 -0.1
-0.450261743899 0.5 -0.1
0.450261743899 0.5 -0.1
-0.419557964675 0.6 -0.1
-0.4 0.6 -0.158689673413
0.4 0.6 -0.158689673413
0.419557964675 0.6 -0.1
-0.4 0.653166250559 -0.1
-0.377844028513 0.7 -0.1
0.377844028513 0.7 -0.1
0.4 0.653166250559 -0.1
-0.321134881094 0.8 -0.1
-0.3 0.8 -0.149316654198
0.3 0.8 -0.149316654198
0.321134881094 0.8 -0.1
-0.3 0.830069363253 -0.1
-0.2 0.9 -0.151974203609
-0.231184424496 0.9 -0.1
0.2 0.9 -0.151974203609
0.3 0.830069363253 -0.1
0.231184424496 0.9 -0.1
-0.2 0.923771496029 -0.1
-0.1 0.969508601898 -0.1
0.0 0.984754300949 -0.1
0.1 0.969508601898 -0.1
0.2 0.923771496029 -0.1
-0.251184359096 -0.9 0.0
-0.2 -0.939017195561 0.0
-0.1 -0.984754300949 0.0
0.0 -1.0 0.0
0.1 -0.984754300949 0.0
0.2 -0.939017195561 0.0
0.251184359096 -0.9 0.0
-0.335420034818 -0.8 0.0
-0.3 -0.850393370181 0.0
0.3 -0.850393370181 0.0
0.335420034818 -0.8 0.0
-0.392129182855 -0.7 0.0
0.392129182855 -0.7 0.0
-0.430666086904 -0.6 0.0
-0.4 -0.683362504128 0.0
0.4 -0.683362504128 0.0
0.430666086904 -0.6 0.0
-0.461369865873 -0.5 0.0
0.461369865873 -0.5 0.0
-0.486390037483 -0.4 0.0
0.486390037483 -0.4 0.0
-0.504767066791 -0.3 0.0
-0.5 -0.3 -0.0525048722399
-0.5 -0.329998072613 0.0
0.5 -0.3 -0.0525048722399
0.5 -0.329998072613 0.0
0.504767066791 -0.3 0.0
-0.5161163187 -0.2 0.0
0.5161163187 -0.2 0.0
-0.522925784698 -0.1 0.0
0.522925784698 -0.1 0.0
-0.525195606697 0.0 0.0
0.525195606697 0.0 0.0
-0.522925784698 0.1 0.0
0.522925784698 0.1 0.0
-0.5161163187 0.2 0.0
0.5161163187 0.2 0.0
-0.504767066791 0.3 0.0
-0.5 0.3 -0.0525048722399
0.5 0.3 -0.0525048722399
0.504767066791 0.3 0.0
-0.5 0.329998072613 0.0
-0.486390037483 0.4 0.0
0.486390037483 0.4 0.0
0.5 0.329998072613 0.0
-0.461369865873 0.5 0.0
0.461369865873 0.5 0.0
-0.430666086904 0.6 0.0
0.430666086904 0.6 0.0
-0.4 0.683362504128 0.0
-0.392129182855 0.7 0.0
0.392129182855 0.7 0.0
0.4 0.683362504128 0.0
-0.335420034818 0.8 0.0
0.335420034818 0.8 0.0
-0.3 0.850393370181 0.0
-0.251184359096 0.9 0.0
0.251184359096 0.9 0.0
0.3 0.850393370181 0.0
-0.2 0.939017195561 0.0
-0.1 0.984754300949 0.0
0.0 1.0 0.0
0.1 0.984754300949 0.0
0.2 0.939017195561 0.0
-0.231184424496 -0.9 0.1
-0.2 -0.923771496029 0.1
-0.1 -0.969508601898 0.1
0.0 -0.984754300949 0.1
0.1 -0.969508601898 0.1
0.2 -0.923771496029 0.1
0.231184424496 -0.9 0.1
-0.321134881094 -0.8 0.1
-0.3 -0.830069363253 0.1
0.3 -0.830069363253 0.1
0.321134881094 -0.8 0.1
-0.377844028513 -0.7 0.1
0.377844028513 -0.7 0.1
-0.419557964675 -0.6 0.1
-0.4 -0.653166250559 0.1
0.4 -0.653166250559 0.1
0.419557964675 -0.6 0.1
-0.450261743899 -0.5 0.1
0.450261743899 -0.5 0.1
-0.47528191426 -0.4 0.1
0.47528191426 -0.4 0.1
-0.5 -0.3 0.0525048722399
-0.494724182973 -0.3 0.1
0.494724182973 -0.3 0.1
0.5 -0.3 0.0525048722399
-0.50703703429 -0.2 0.1
-0.5 -0.262004386514 0.1
0.5 -0.262004386514 0.1
0.50703703429 -0.2 0.1
-0.51384650098 -0.1 0.1
0.51384650098 -0.1 0.1
-0.516116320277 0.0 0.1
0.516116320277 0.0 0.1
-0.51384650098 0.1 0.1
0.51384650098 0.1 0.1
-0.50703703429 0.2 0.1
0.50703703429 0.2 0.1
-0.5 0.3 0.0525048722399
-0.5 0.262004386514 0.1
-0.494724182973 0.3 0.1
0.494724182973 0.3 0.1
0.5 0.3 0.0525048722399
0.5 0.262004386514 0.1
-0.47528191426 0.4 0.1
0.47528191426 0.4 0.1
-0.450261743899 0.5 0.1
0.450261743899 0.5 0.1
-0.419557964675 0.6 0.1
0.419557964675 0.6 0.1
-0.4 0.653166250559 0.1
-0.377844028513 0.7 0.1
0.377844028513 0.7 0.1
0.4 0.653166250559 0.1
-0.321134881094 0.8 0.1
0.321134881094 0.8 0.1
-0.3 0.830069363253 0.1
-0.231184424496 0.9 0.1
0.231184424496 0.9 0.1
0.3 0.830069363253 0.1
-0.2 0.923771496029 0.1
-0.1 0.969508601898 0.1
0.0 0.984754300949 0.1
0.1 0.969508601898 0.1
0.2 0.923771496029 0.1
-0.2 -0.9 0.151974203609
-0.1 -0.923771496029 0.2
-0.151974203609 -0.9 0.2
0.0 -0.939017195561 0.2
0.1 -0.923771496029 0.2
0.151974203609 -0.9 0.2
0.2 -0.9 0.151974203609
-0.3 -0.8 0.149316654198
-0.2 -0.87071769829 0.2
-0.269590087134 -0.8 0.2
0.2 -0.87071769829 0.2
0.3 -0.8 0.149316654198
0.269590087134 -0.8 0.2
-0.334988566616 -0.7 0.2
-0.3 -0.761698273696 0.2
0.3 -0.761698273696 0.2
0.334988566616 -0.7 0.2
-0.4 -0.6 0.158689673413
-0.382296267509 -0.6 0.2
0.382296267509 -0.6 0.2
0.4 -0.6 0.158689673413
-0.41693737147 -0.5 0.2
-0.4 -0.555163802401 0.2
0.4 -0.555163802401 0.2
0.41693737147 -0.5 0.2
-0.441957543939 -0.4 0.2
0.441957543939 -0.4 0.2
-0.46139981191 -0.3 0.2
0.46139981191 -0.3 0.2
-0.5 -0.2 0.125835491573
-0.475285144844 -0.2 0.2
0.475285144844 -0.2 0.2
0.5 -0.2 0.125835491573
-0.5 -0.1 0.15083549975
-0.483616239773 -0.1 0.2
0.5 -0.1 0.15083549975
0.483616239773 -0.1 0.2
-0.5 0.0 0.159168830526
-0.486393270423 0.0 0.2
0.5 0.0 0.159168830526
0.486393270423 0.0 0.2
-0.5 0.1 0.15083549975
-0.483616239773 0.1 0.2
0.5 0.1 0.15083549975
0.483616239773 0.1 0.2
-0.5 0.2 0.125835491573
-0.475285144844 0.2 0.2
0.5 0.2 0.125835491573
0.475285144844 0.2 0.2
-0.46139981191 0.3 0.2
0.46139981191 0.3 0.2
-0.441957543939 0.4 0.2
0.441957543939 0.4 0.2
-0.41693737147 0.5 0.2
0.41693737147 0.5 0.2
-0.4 0.6 0.158689673413
-0.4 0.555163802401 0.2
-0.382296267509 0.6 0.2
0.382296267509 0.6 0.2
0.4 0.6 0.158689673413
0.4 0.555163802401 0.2
-0.334988566616 0.7 0.2
0.334988566616 0.7 0.2
-0.3 0.8 0.149316654198
-0.3 0.761698273696 0.2
-0.269590087134 0.8 0.2
0.269590087134 0.8 0.2
0.3 0.8 0.149316654198
0.3 0.761698273696 0.2
-0.2 0.9 0.151974203609
-0.2 0.87071769829 0.2
-0.151974203609 0.9 0.2
0.151974203609 0.9 0.2
0.2 0.9 0.151974203609
0.2 0.87071769829 0.2
-0.1 0.923771496029 0.2
0.0 0.939017195561 0.2
0.1 0.923771496029 0.2
-0.1 -0.9 0.231184424496
0.0 -0.9 0.251184359096
0.1 -0.9 0.231184424496
-0.2 -0.8 0.269590087134
-0.1 -0.830069363253 0.3
-0.149316654198 -0.8 0.3
0.0 -0.850393370181 0.3
0.1 -0.830069363253 0.3
0.2 -0.8 0.269590087134
0.149316654198 -0.8 0.3
-0.3 -0.7 0.248985757806
-0.2 -0.761698273696 0.3
-0.248985757806 -0.7 0.3
0.2 -0.761698273696 0.3
0.3 -0.7 0.248985757806
0.248985757806 -0.7 0.3
-0.310870270366 -0.6 0.3
-0.3 -0.62297780273 0.3
0.3 -0.62297780273 0.3
0.310870270366 -0.6 0.3
-0.4 -0.5 0.23049537219
-0.350355627078 -0.5 0.3
0.350355627078 -0.5 0.3
0.4 -0.5 0.23049537219
-0.4 -0.4 0.275543654717
-0.382531812434 -0.4 0.3
0.4 -0.4 0.275543654717
0.382531812434 -0.4 0.3
-0.405859020559 -0.3 0.3
-0.4 -0.330135478764 0.3
0.4 -0.330135478764 0.3
0.405859020559 -0.3 0.3
-0.419744353812 -0.2 0.3
0.419744353812 -0.2 0.3
-0.428075447642 -0.1 0.3
0.428075447642 -0.1 0.3
-0.430852477631 0.0 0.3
0.430852477631 0.0 0.3
-0.428075447642 0.1 0.3
0.428075447642 0.1 0.3
-0.419744353812 0.2 0.3
0.419744353812 0.2 0.3
-0.405859020559 0.3 0.3
0.405859020559 0.3 0.3
-0.4 0.4 0.275543654717
-0.4 0.330135478764 0.3
-0.382531812434 0.4 0.3
0.382531812434 0.4 0.3
0.4 0.4 0.275543654717
0.4 0.330135478764 0.3
-0.4 0.5 0.23049537219
-0.350355627078 0.5 0.3
0.4 0.5 0.23049537219
0.350355627078 0.5 0.3
-0.310870270366 0.6 0.3
0.310870270366 0.6 0.3
-0.3 0.7 0.248985757806
-0.3 0.62297780273 0.3
-0.248985757806 0.7 0.3
0.248985757806 0.7 0.3
0.3 0.7 0.248985757806
0.3 0.62297780273 0.3
-0.2 0.8 0.269590087134
-0.2 0.761698273696 0.3
-0.149316654198 0.8 0.3
0.149316654198 0.8 0.3
0.2 0.8 0.269590087134
0.2 0.761698273696 0.3
-0.1 0.9 0.231184424496
-0.1 0.830069363253 0.3
0.0 0.850393370181 0.3
0.0 0.9 0.251184359096
0.1 0.830069363253 0.3
0.1 0.9 0.231184424496
-0.1 -0.8 0.321134881094
0.0 -0.8 0.335420034818
0.1 -0.8 0.321134881094
-0.2 -0.7 0.334988566616
-0.1 -0.7 0.377844028513
0.0 -0.7 0.392129182855
0.1 -0.7 0.377844028513
0.2 -0.7 0.334988566616
-0.3 -0.6 0.310870270366
-0.2 -0.6 0.382296267509
-0.158689673413 -0.6 0.4
-0.1 -0.653166250559 0.4
0.0 -0.683362504128 0.4
0.1 -0.653166250559 0.4
0.2 -0.6 0.382296267509
0.158689673413 -0.6 0.4
0.3 -0.6 0.310870270366
-0.3 -0.5 0.350355627078
-0.23049537219 -0.5 0.4
-0.2 -0.555163802401 0.4
0.2 -0.555163802401 0.4
0.3 -0.5 0.350355627078
0.23049537219 -0.5 0.4
-0.3 -0.4 0.382531812434
-0.275543654717 -0.4 0.4
0.3 -0.4 0.382531812434
0.275543654717 -0.4 0.4
-0.4 -0.3 0.307534757294
-0.3 -0.330135478764 0.4
-0.307534757294 -0.3 0.4
0.3 -0.330135478764 0.4
0.4 -0.3 0.307534757294
0.307534757294 -0.3 0.4
-0.4 -0.2 0.325391430602
-0.325391430602 -0.2 0.4
0.4 -0.2 0.325391430602
0.325391430602 -0.2 0.4
-0.4 -0.1 0.336105299771
-0.336105299771 -0.1 0.4
0.4 -0.1 0.336105299771
0.336105299771 -0.1 0.4
-0.4 0.0 0.339676585365
-0.339676585365 0.0 0.4
0.4 0.0 0.339676585365
0.339676585365 0.0 0.4
-0.4 0.1 0.336105299771
-0.336105299771 0.1 0.4
0.4 0.1 0.336105299771
0.336105299771 0.1 0.4
-0.4 0.2 0.325391430602
-0.325391430602 0.2 0.4
0.4 0.2 0.325391430602
0.325391430602 0.2 0.4
-0.4 0.3 0.307534757294
-0.307534757294 0.3 0.4
0.4 0.3 0.307534757294
0.307534757294 0.3 0.4
-0.3 0.4 0.382531812434
-0.3 0.330135478764 0.4
-0.275543654717 0.4 0.4
0.275543654717 0.4 0.4
0.3 0.4 0.382531812434
0.3 0.330135478764 0.4
-0.3 0.5 0.350355627078
-0.23049537219 0.5 0.4
0.3 0.5 0.350355627078
0.23049537219 0.5 0.4
-0.3 0.6 0.310870270366
-0.2 0.6 0.382296267509
-0.2 0.555163802401 0.4
-0.158689673413 0.6 0.4
0.158689673413 0.6 0.4
0.2 0.6 0.382296267509
0.2 0.555163802401 0.4
0.3 0.6 0.310870270366
-0.2 0.7 0.334988566616
-0.1 0.7 0.377844028513
-0.1 0.653166250559 0.4
0.0 0.683362504128 0.4
0.0 0.7 0.392129182855
0.1 0.653166250559 0.4
0.1 0.7 0.377844028513
0.2 0.7 0.334988566616
-0.1 0.8 0.321134881094
0.0 0.8 0.335420034818
0.1 0.8 0.321134881094
-0.1 -0.6 0.419557964675
0.0 -0.6 0.430666086904
0.1 -0.6 0.419557964675
-0.2 -0.5 0.41693737147
-0.1 -0.5 0.450261743899
0.0 -0.5 0.461369865873
0.1 -0.5 0.450261743899
0.2 -0.5 0.41693737147
-0.2 -0.4 0.441957543939
-0.1 -0.4 0.47528191426
0.0 -0.4 0.486390037483
0.1 -0.4 0.47528191426
0.2 -0.4 0.441957543939
-0.3 -0.3 0.405859020559
-0.2 -0.3 0.46139981191
-0.1 -0.3 0.494724182973
-0.0525048722399 -0.3 0.5
0.0 -0.329998072613 0.5
0.1 -0.3 0.494724182973
0.0525048722399 -0.3 0.5
0.2 -0.3 0.46139981191
0.3 -0.3 0.405859020559
-0.3 -0.2 0.419744353812
-0.2 -0.2 0.475285144844
-0.125835491573 -0.2 0.5
-0.1 -0.262004386514 0.5
0.1 -0.262004386514 0.5
0.2 -0.2 0.475285144844
0.125835491573 -0.2 0.5
0.3 -0.2 0.419744353812
-0.3 -0.1 0.428075447642
-0.2 -0.1 0.483616239773
-0.15083549975 -0.1 0.5
0.2 -0.1 0.483616239773
0.15083549975 -0.1 0.5
0.3 -0.1 0.428075447642
-0.3 0.0 0.430852477631
-0.2 0.0 0.486393270423
-0.159168830526 0.0 0.5
0.2 0.0 0.486393270423
0.159168830526 0.0 0.5
0.3 0.0 0.430852477631
-0.3 0.1 0.428075447642
-0.2 0.1 0.483616239773
-0.15083549975 0.1 0.5
0.2 0.1 0.483616239773
0.15083549975 0.1 0.5
0.3 0.1 0.428075447642
-0.3 0.2 0.419744353812
-0.2 0.2 0.475285144844
-0.125835491573 0.2 0.5
0.2 0.2 0.475285144844
0.125835491573 0.2 0.5
0.3 0.2 0.419744353812
-0.3 0.3 0.405859020559
-0.2 0.3 0.46139981191
-0.1 0.3 0.494724182973
-0.1 0.262004386514 0.5
-0.0525048722399 0.3 0.5
0.0525048722399 0.3 0.5
0.1 0.3 0.494724182973
0.1 0.262004386514 0.5
0.2 0.3 0.46139981191
0.3 0.3 0.405859020559
-0.2 0.4 0.441957543939
-0.1 0.4 0.47528191426
0.0 0.4 0.486390037483
0.0 0.329998072613 0.5
0.1 0.4 0.47528191426
0.2 0.4 0.441957543939
-0.2 0.5 0.41693737147
-0.1 0.5 0.450261743899
0.0 0.5 0.461369865873
0.1 0.5 0.450261743899
0.2 0.5 0.41693737147
-0.1 0.6 0.419557964675
0.0 0.6 0.430666086904
0.1 0.6 0.419557964675
0.0 -0.3 0.504767066791
-0.1 -0.2 0.50703703429
0.0 -0.2 0.5161163187
0.1 -0.2 0.50703703429
-0.1 -0.1 0.51384650098
0.0 -0.1 0.522925784698
0.1 -0.1 0.51384650098
-0.1 0.0 0.516116320277
0.0 0.0 0.525195606697
0.1 0.0 0.516116320277
-0.1 0.1 0.51384650098
0.0 0.1 0.522925784698
0.1 0.1 0.51384650098
-0.1 0.2 0.50703703429
0.0 0.2 0.5161163187
0.1 0.2 0.50703703429
0.0 0.3 0.504767066791
3 2 1 0
3 3 1 2
3 6 5 4
3 1 7 5
3 6 1 5
3 0 1 6
3 8 7 1
3 1 3 8
3 8 3 9
3 10 8 9
3 11 12 5
3 12 4 5
3 13 11 5
3 7 13 5
3 14 13 7
3 8 14 7
3 15 14 8
3 15 8 10
3 16 17 11
3 17 12 11
3 18 16 11
3 13 18 11
3 19 18 13
3 14 19 13
3 20 19 14
3 20 14 15
3 21 22 16
3 22 17 16
3 23 21 16
3 18 23 16
3 24 23 18
3 19 24 18
3 25 24 19
3 25 19 20
3 26 27 21
3 27 22 21
3 28 26 21
3 23 28 21
3 29 28 23
3 24 29 23
3 30 29 24
3 30 24 25
3 27 26 31
3 28 32 26
3 33 26 32
3 26 33 31
3 32 28 29
3 32 29 34
3 34 29 35
3 30 35 29
3 33 32 36
3 34 36 32
3 39 38 37
3 38 39 40
3 40 41 38
3 41 40 42
3 42 43 41
3 44 43 42
3 47 46 45
3 38 48 46
3 47 38 46
3 37 38 47
3 49 48 38
3 41 49 38
3 50 49 41
3 43 50 41
3 51 50 43
3 43 44 51
3 51 44 52
3 53 51 52
3 54 55 46
3 55 45 46
3 56 54 46
3 48 56 46
3 57 56 48
3 49 57 48
3 58 57 49
3 50 58 49
3 59 58 50
3 51 59 50
3 60 59 51
3 60 51 53
3 63 62 61
3 54 64 62
3 63 54 62
3 55 54 63
3 65 64 54
3 56 65 54
3 56 57 65
3 65 2 0
3 65 57 2
3 57 58 66
3 57 66 3
3 57 3 2
3 67 66 58
3 59 67 58
3 68 67 59
3 59 60 68
3 68 60 69
3 70 68 69
3 71 72 62
3 72 61 62
3 73 71 62
3 64 73 62
3 64 65 73
3 73 6 4
3 73 65 6
3 0 6 65
3 9 3 66
3 66 67 74
3 66 74 10
3 66 10 9
3 75 74 67
3 68 75 67
3 76 75 68
3 76 68 70
3 77 78 71
3 78 72 71
3 79 77 71
3 73 79 71
3 4 12 79
3 73 4 79
3 15 10 80
3 74 80 10
3 81 80 74
3 75 81 74
3 82 81 75
3 82 75 76
3 83 84 77
3 84 78 77
3 85 83 77
3 79 85 77
3 12 17 85
3 79 12 85
3 20 15 86
3 80 86 15
3 87 86 80
3 81 87 80
3 88 87 81
3 88 81 82
3 89 90 83
3 90 84 83
3 91 89 83
3 85 91 83
3 17 22 91
3 85 17 91
3 25 20 92
3 86 92 20
3 93 92 86
3 87 93 86
3 94 93 87
3 94 87 88
3 95 96 89
3 96 90 89
3 97 95 89
3 91 97 89
3 22 27 97
3 91 22 97
3 30 25 98
3 92 98 25
3 99 98 92
3 93 99 92
3 100 99 93
3 100 93 94
3 101 102 95
3 102 96 95
3 103 101 95
3 97 103 95
3 104 103 97
3 104 97 31
3 27 31 97
3 31 33 104
3 35 105 34
3 98 106 105
3 35 98 105
3 30 98 35
3 107 106 98
3 99 107 98
3 108 107 99
3 108 99 100
3 102 101 109
3 103 110 101
3 111 101 110
3 101 111 109
3 112 110 103
3 104 112 103
3 113 112 104
3 113 104 36
3 33 36 104
3 105 114 113
3 36 105 113
3 34 105 36
3 115 114 105
3 106 115 105
3 115 106 107
3 115 107 116
3 116 107 117
3 108 117 107
3 118 119 110
3 119 111 110
3 120 118 110
3 112 120 110
3 121 120 112
3 113 121 112
3 122 121 113
3 114 122 113
3 123 122 114
3 115 123 114
3 124 123 115
3 124 115 116
3 119 118 125
3 120 126 118
3 127 118 126
3 118 127 125
3 128 126 120
3 121 128 120
3 129 128 121
3 122 129 121
3 129 122 123
3 129 123 130
3 130 123 131
3 124 131 123
3 127 126 132
3 128 132 126
3 128 133 132
3 129 133 128
3 129 134 133
3 130 134 129
3 137 136 135
3 136 137 138
3 138 139 136
3 139 138 140
3 140 141 139
3 142 141 140
3 145 144 143
3 136 146 144
3 145 136 144
3 135 136 145
3 147 146 136
3 139 147 136
3 148 147 139
3 141 148 139
3 149 148 141
3 141 142 149
3 149 142 150
3 151 149 150
3 154 153 152
3 144 155 153
3 154 144 153
3 143 144 154
3 144 146 155
3 155 39 37
3 155 146 39
3 39 146 40
3 40 146 147
3 40 147 42
3 42 147 148
3 148 149 156
3 148 156 44
3 148 44 42
3 157 156 149
3 149 151 157
3 157 151 158
3 159 157 158
3 160 161 153
3 161 152 153
3 153 155 160
3 160 47 45
3 160 155 47
3 37 47 155
3 52 44 156
3 156 157 162
3 156 162 53
3 156 53 52
3 163 162 157
3 163 157 159
3 164 165 160
3 165 161 160
3 45 55 164
3 160 45 164
3 60 53 166
3 162 166 53
3 167 166 162
3 167 162 163
3 170 169 168
3 61 169 170
3 61 170 165
3 63 61 165
3 165 164 63
3 55 63 164
3 69 60 166
3 171 69 166
3 172 171 166
3 171 70 69
3 166 167 172
3 173 171 172
3 174 175 169
3 175 168 169
3 61 72 174
3 169 61 174
3 76 70 176
3 171 176 70
3 177 176 171
3 177 171 173
3 178 179 174
3 179 175 174
3 72 78 178
3 174 72 178
3 82 76 180
3 176 180 76
3 181 180 176
3 181 176 177
3 182 183 178
3 183 179 178
3 78 84 182
3 178 78 182
3 88 82 184
3 180 184 82
3 185 184 180
3 185 180 181
3 186 187 182
3 187 183 182
3 84 90 186
3 182 84 186
3 94 88 188
3 184 188 88
3 189 188 184
3 189 184 185
3 190 191 186
3 191 187 186
3 90 96 190
3 186 90 190
3 100 94 192
3 188 192 94
3 193 192 188
3 193 188 189
3 194 195 190
3 195 191 190
3 96 102 194
3 190 96 194
3 108 100 196
3 192 196 100
3 197 196 192
3 197 192 193
3 195 194 198
3 194 102 199
3 194 199 200
3 194 200 198
3 102 109 199
3 109 111 199
3 117 201 116
3 201 117 196
3 117 108 196
3 201 196 202
3 202 203 201
3 197 202 196
3 204 205 199
3 205 200 199
3 111 119 204
3 199 111 204
3 124 116 206
3 201 206 116
3 207 206 201
3 207 201 203
3 208 209 204
3 209 205 204
3 210 208 204
3 210 204 125
3 119 125 204
3 125 127 210
3 131 211 130
3 206 212 211
3 131 206 211
3 124 206 131
3 213 212 206
3 213 206 207
3 209 208 214
3 210 215 208
3 216 208 215
3 208 216 214
3 217 215 210
3 217 210 132
3 127 132 210
3 218 217 132
3 132 133 218
3 219 218 133
3 133 134 219
3 211 220 219
3 134 211 219
3 130 211 134
3 220 211 212
3 220 212 221
3 221 212 222
3 213 222 212
3 216 215 223
3 217 224 215
3 225 215 224
3 215 225 223
3 226 224 217
3 218 226 217
3 227 226 218
3 219 227 218
3 227 219 220
3 227 220 228
3 228 220 229
3 221 229 220
3 225 224 230
3 226 230 224
3 226 231 230
3 227 231 226
3 227 232 231
3 228 232 227
3 235 234 233
3 234 235 236
3 236 237 234
3 237 236 238
3 238 239 237
3 240 239 238
3 243 242 241
3 135 242 243
3 135 243 233
3 137 135 233
3 233 234 137
3 137 234 138
3 138 234 237
3 138 237 140
3 140 237 239
3 244 140 239
3 245 244 239
3 244 142 140
3 239 240 245
3 246 244 245
3 249 248 247
3 143 248 249
3 143 249 241
3 145 143 241
3 241 242 145
3 135 145 242
3 150 142 244
3 250 150 244
3 251 250 244
3 250 151 150
3 244 246 251
3 252 250 251
3 152 253 247
3 247 154 152
3 154 247 248
3 143 154 248
3 158 151 250
3 159 252 254
3 159 158 252
3 158 250 252
3 257 256 255
3 257 161 256
3 257 253 161
3 253 152 161
3 254 163 159
3 254 258 163
3 258 254 259
3 260 258 259
3 261 262 256
3 262 255 256
3 161 165 261
3 256 161 261
3 167 163 263
3 258 263 163
3 264 263 258
3 264 258 260
3 168 265 262
3 262 170 168
3 170 262 261
3 165 170 261
3 172 167 263
3 173 264 266
3 173 172 264
3 172 263 264
3 267 168 175
3 265 168 267
3 177 173 268
3 268 173 266
3 269 175 179
3 267 175 269
3 181 177 270
3 270 177 268
3 271 179 183
3 269 179 271
3 185 181 272
3 272 181 270
3 273 183 187
3 271 183 273
3 189 185 274
3 274 185 272
3 275 187 191
3 273 187 275
3 193 189 276
3 276 189 274
3 277 191 195
3 275 191 277
3 197 193 278
3 278 193 276
3 279 277 195
3 280 279 195
3 198 280 195
3 198 200 280
3 202 281 203
3 281 202 282
3 202 197 282
3 282 197 278
3 283 284 280
3 284 279 280
3 200 205 283
3 280 200 283
3 207 203 285
3 281 285 203
3 286 285 281
3 286 281 282
3 284 283 287
3 288 205 209
3 283 205 288
3 287 283 288
3 213 207 289
3 289 207 285
3 289 285 290
3 286 290 285
3 291 288 209
3 292 291 209
3 214 292 209
3 214 216 292
3 222 293 221
3 293 222 294
3 222 213 294
3 294 213 289
3 291 292 295
3 292 216 296
3 292 296 297
3 292 297 295
3 216 223 296
3 223 225 296
3 229 298 228
3 298 229 293
3 229 221 293
3 298 293 299
3 299 300 298
3 294 299 293
3 297 296 301
3 296 225 302
3 296 302 303
3 296 303 301
3 225 230 302
3 304 302 230
3 230 231 304
3 305 304 231
3 231 232 305
3 305 232 298
3 232 228 298
3 305 298 306
3 306 307 305
3 300 306 298
3 303 302 308
3 304 308 302
3 304 309 308
3 305 309 304
3 305 310 309
3 307 310 305
3 313 312 311
3 313 314 235
3 312 313 235
3 233 312 235
3 314 236 235
3 236 314 315
3 315 238 236
3 238 315 316
3 238 316 317
3 318 240 238
3 317 318 238
3 319 318 317
3 322 321 320
3 241 321 322
3 241 322 311
3 243 241 311
3 311 312 243
3 233 243 312
3 245 240 318
3 323 245 318
3 324 323 318
3 323 246 245
3 318 319 324
3 325 323 324
3 247 326 320
3 320 249 247
3 249 320 321
3 241 249 321
3 251 246 323
3 252 325 327
3 252 251 325
3 251 323 325
3 330 329 328
3 330 253 329
3 330 326 253
3 326 247 253
3 327 254 252
3 327 331 254
3 331 327 332
3 333 331 332
3 255 334 328
3 328 257 255
3 257 328 329
3 253 257 329
3 259 254 331
3 260 333 335
3 260 259 333
3 259 331 333
3 336 255 262
3 334 255 336
3 264 260 337
3 337 260 335
3 338 262 265
3 336 262 338
3 266 264 339
3 339 264 337
3 342 341 340
3 342 267 341
3 342 338 267
3 338 265 267
3 339 268 266
3 339 343 268
3 343 339 344
3 345 343 344
3 346 347 341
3 347 340 341
3 267 269 346
3 341 267 346
3 270 268 348
3 343 348 268
3 349 348 343
3 349 343 345
3 350 351 346
3 351 347 346
3 269 271 350
3 346 269 350
3 272 270 352
3 348 352 270
3 353 352 348
3 353 348 349
3 354 355 350
3 355 351 350
3 271 273 354
3 350 271 354
3 274 272 356
3 352 356 272
3 357 356 352
3 357 352 353
3 358 359 354
3 359 355 354
3 273 275 358
3 354 273 358
3 276 274 360
3 356 360 274
3 361 360 356
3 361 356 357
3 359 358 362
3 363 275 277
3 358 275 363
3 362 358 363
3 278 276 364
3 364 276 360
3 364 360 365
3 361 365 360
3 366 277 279
3 363 277 366
3 282 278 367
3 367 278 364
3 368 279 284
3 366 279 368
3 286 282 369
3 369 282 367
3 370 368 284
3 371 370 284
3 287 371 284
3 287 288 371
3 290 372 289
3 372 290 373
3 290 286 373
3 373 286 369
3 370 371 374
3 375 288 291
3 371 288 375
3 374 371 375
3 294 289 376
3 376 289 372
3 376 372 377
3 373 377 372
3 378 375 291
3 379 378 291
3 295 379 291
3 295 297 379
3 299 380 300
3 380 299 381
3 299 294 381
3 381 294 376
3 378 379 382
3 379 297 383
3 379 383 384
3 379 384 382
3 297 301 383
3 301 303 383
3 306 385 307
3 385 306 380
3 306 300 380
3 385 380 386
3 386 387 385
3 381 386 380
3 384 383 388
3 308 389 388
3 308 388 383
3 383 303 308
3 308 309 389
3 390 389 309
3 309 310 390
3 391 390 310
3 392 391 310
3 310 307 392
3 392 307 385
3 387 392 385
3 311 393 394
3 394 313 311
3 394 314 313
3 314 394 395
3 315 314 395
3 315 395 396
3 397 316 315
3 396 397 315
3 397 317 316
3 317 397 398
3 319 317 399
3 399 317 398
3 320 400 401
3 401 322 320
3 311 322 401
3 393 311 401
3 319 399 402
3 319 402 324
3 325 324 403
3 403 324 402
3 404 320 326
3 400 320 404
3 327 325 405
3 405 325 403
3 328 406 407
3 407 330 328
3 326 330 407
3 404 326 407
3 327 405 408
3 327 408 332
3 333 332 409
3 409 332 408
3 410 328 334
3 406 328 410
3 335 333 411
3 411 333 409
3 412 334 336
3 410 334 412
3 337 335 413
3 413 335 411
3 416 415 414
3 416 338 415
3 416 412 338
3 412 336 338
3 413 339 337
3 413 417 339
3 417 413 418
3 419 417 418
3 340 420 414
3 414 342 340
3 342 414 415
3 338 342 415
3 344 339 417
3 345 419 421
3 345 344 419
3 344 417 419
3 422 340 347
3 420 340 422
3 349 345 423
3 423 345 421
3 424 347 351
3 422 347 424
3 353 349 425
3 425 349 423
3 426 351 355
3 424 351 426
3 357 353 427
3 427 353 425
3 428 355 359
3 426 355 428
3 361 357 429
3 429 357 427
3 430 428 359
3 431 430 359
3 362 431 359
3 362 363 431
3 365 432 364
3 432 365 433
3 365 361 433
3 433 361 429
3 430 431 434
3 435 363 366
3 431 363 435
3 434 431 435
3 367 364 436
3 436 364 432
3 436 432 437
3 433 437 432
3 438 366 368
3 435 366 438
3 369 367 439
3 439 367 436
3 440 368 370
3 438 368 440
3 373 369 441
3 441 369 439
3 442 440 370
3 374 442 370
3 443 374 375
3 442 374 443
3 445 444 376
3 376 377 445
3 445 377 373
3 445 373 441
3 446 375 378
3 443 375 446
3 381 376 447
3 447 376 444
3 448 446 378
3 382 448 378
3 449 382 384
3 448 382 449
3 451 450 387
3 387 386 451
3 451 386 381
3 451 381 447
3 452 449 384
3 388 452 384
3 388 389 452
3 453 452 389
3 453 389 390
3 453 390 454
3 390 391 455
3 390 455 454
3 391 392 455
3 456 455 392
3 456 392 387
3 456 387 450
3 393 457 458
3 458 394 393
3 458 395 394
3 395 458 459
3 395 459 460
3 460 396 395
3 460 461 397
3 396 460 397
3 461 398 397
3 398 461 462
3 399 398 463
3 463 398 462
3 400 464 465
3 465 401 400
3 393 401 465
3 457 393 465
3 399 463 466
3 399 466 402
3 403 402 467
3 467 402 466
3 468 400 404
3 464 400 468
3 405 403 469
3 469 403 467
3 406 470 471
3 471 407 406
3 404 407 471
3 468 404 471
3 405 469 472
3 405 472 408
3 409 408 473
3 473 408 472
3 474 406 410
3 470 406 474
3 411 409 475
3 475 409 473
3 476 410 412
3 474 410 476
3 413 411 477
3 477 411 475
3 414 478 416
3 479 416 478
3 479 412 416
3 476 412 479
3 413 477 480
3 413 480 481
3 413 481 418
3 481 419 418
3 482 414 420
3 478 414 482
3 483 478 482
3 478 483 479
3 484 481 480
3 421 419 485
3 485 419 481
3 485 481 484
3 486 420 422
3 482 420 486
3 423 421 487
3 487 421 485
3 488 422 424
3 486 422 488
3 425 423 489
3 489 423 487
3 490 424 426
3 488 424 490
3 427 425 491
3 491 425 489
3 492 426 428
3 490 426 492
3 429 427 493
3 493 427 491
3 428 430 492
3 430 494 492
3 495 492 494
3 495 494 496
3 497 498 499
3 498 433 499
3 433 493 499
3 433 429 493
3 494 430 434
3 500 496 435
3 496 434 435
3 496 494 434
3 497 501 436
3 436 437 497
3 498 497 437
3 498 437 433
3 502 435 438
3 500 435 502
3 439 436 503
3 503 436 501
3 504 438 440
3 502 438 504
3 441 439 505
3 505 439 503
3 506 504 440
3 442 506 440
3 507 442 443
3 506 442 507
3 509 508 444
3 444 445 509
3 509 445 441
3 509 441 505
3 510 443 446
3 507 443 510
3 447 444 511
3 511 444 508
3 512 510 446
3 448 512 446
3 513 448 449
3 512 448 513
3 515 514 450
3 450 451 515
3 515 451 447
3 515 447 511
3 516 513 449
3 452 516 449
3 452 453 516
3 517 516 453
3 518 517 453
3 453 454 518
3 455 519 518
3 455 518 454
3 455 456 519
3 520 519 456
3 520 456 450
3 520 450 514
3 457 521 458
3 522 459 458
3 521 522 458
3 522 521 523
3 522 460 459
3 460 522 524
3 524 461 460
3 461 524 525
3 462 461 525
3 525 526 527
3 527 462 525
3 527 463 462
3 464 528 465
3 521 465 528
3 521 457 465
3 529 521 528
3 528 530 529
3 521 529 523
3 531 527 526
3 532 463 527
3 533 532 527
3 531 533 527
3 532 466 463
3 532 467 466
3 534 464 468
3 528 464 534
3 535 528 534
3 528 535 530
3 536 532 533
3 469 467 537
3 537 467 532
3 537 532 536
3 470 538 471
3 539 471 538
3 539 468 471
3 534 468 539
3 469 537 540
3 469 540 541
3 469 541 472
3 541 473 472
3 542 470 474
3 538 470 542
3 543 538 542
3 538 543 539
3 544 541 540
3 475 473 545
3 545 473 541
3 545 541 544
3 546 474 476
3 542 474 546
3 477 475 547
3 547 475 545
3 548 476 479
3 546 476 548
3 480 477 549
3 549 477 547
3 482 550 483
3 551 483 550
3 551 479 483
3 548 479 551
3 480 549 552
3 480 552 553
3 480 553 484
3 553 485 484
3 554 482 486
3 482 554 550
3 550 554 555
3 551 550 555
3 553 557 556
3 553 552 557
3 556 487 485
3 556 485 553
3 558 486 488
3 486 558 554
3 554 558 559
3 555 554 559
3 556 561 560
3 556 557 561
3 560 489 487
3 560 487 556
3 562 488 490
3 488 562 558
3 558 562 563
3 559 558 563
3 560 565 564
3 560 561 565
3 564 491 489
3 564 489 560
3 566 490 492
3 490 566 562
3 562 566 567
3 563 562 567
3 564 569 568
3 564 565 569
3 568 493 491
3 568 491 564
3 566 492 495
3 570 567 496
3 567 495 496
3 567 566 495
3 569 571 497
3 497 499 569
3 568 569 499
3 568 499 493
3 572 496 500
3 570 496 572
3 501 497 573
3 573 497 571
3 574 500 502
3 572 500 574
3 503 501 575
3 575 501 573
3 502 504 574
3 504 576 574
3 577 574 576
3 577 576 578
3 579 580 581
3 580 505 581
3 505 575 581
3 505 503 575
3 576 504 506
3 582 578 507
3 578 506 507
3 578 576 506
3 579 583 508
3 508 509 579
3 580 579 509
3 580 509 505
3 507 510 582
3 510 584 582
3 585 582 584
3 585 584 586
3 587 588 589
3 588 511 589
3 511 583 589
3 511 508 583
3 584 510 512
3 584 512 590
3 584 590 591
3 512 513 590
3 591 586 584
3 591 590 592
3 593 594 595
3 595 594 514
3 587 595 514
3 587 514 515
3 515 588 587
3 588 515 511
3 590 513 516
3 516 517 596
3 516 596 590
3 592 590 596
3 517 518 596
3 597 596 518
3 518 519 597
3 598 597 519
3 598 519 520
3 593 598 520
3 594 593 520
3 594 520 514
3 523 599 522
3 522 599 600
3 600 524 522
3 524 600 601
3 601 525 524
3 601 526 525
3 530 602 529
3 599 529 602
3 599 523 529
3 603 599 602
3 602 604 603
3 599 603 600
3 603 605 600
3 600 605 601
3 605 606 601
3 607 526 601
3 608 607 601
3 606 608 601
3 607 531 526
3 607 533 531
3 534 609 535
3 602 535 609
3 602 530 535
3 610 602 609
3 609 611 610
3 602 610 604
3 612 607 608
3 613 533 607
3 614 613 607
3 612 614 607
3 613 536 533
3 613 537 536
3 615 534 539
3 609 534 615
3 616 609 615
3 609 616 611
3 617 613 614
3 540 537 618
3 618 537 613
3 618 613 617
3 542 619 543
3 620 543 619
3 620 539 543
3 615 539 620
3 540 618 621
3 540 621 622
3 540 622 544
3 622 545 544
3 623 542 546
3 542 623 619
3 619 623 624
3 620 619 624
3 622 626 625
3 622 621 626
3 625 547 545
3 625 545 622
3 627 546 548
3 623 546 627
3 628 623 627
3 623 628 624
3 629 625 626
3 549 547 630
3 630 547 625
3 630 625 629
3 631 548 551
3 627 548 631
3 552 549 632
3 632 549 630
3 633 551 555
3 631 551 633
3 557 552 634
3 634 552 632
3 635 555 559
3 633 555 635
3 561 557 636
3 636 557 634
3 637 559 563
3 635 559 637
3 565 561 638
3 638 561 636
3 639 563 567
3 637 563 639
3 569 565 640
3 640 565 638
3 641 567 570
3 639 567 641
3 571 569 642
3 642 569 640
3 570 572 641
3 572 643 641
3 644 641 643
3 644 643 645
3 646 647 648
3 647 573 648
3 573 642 648
3 573 571 642
3 649 572 574
3 572 649 643
3 643 649 650
3 645 643 650
3 647 652 651
3 647 646 652
3 651 575 573
3 651 573 647
3 649 574 577
3 653 650 578
3 650 577 578
3 650 649 577
3 652 654 579
3 579 581 652
3 651 652 581
3 651 581 575
3 578 582 653
3 582 655 653
3 656 653 655
3 656 655 657
3 658 659 660
3 659 583 660
3 583 654 660
3 583 579 654
3 655 582 585
3 655 585 661
3 655 661 662
3 585 586 661
3 662 657 655
3 662 661 663
3 664 665 666
3 666 665 587
3 658 666 587
3 658 587 589
3 589 659 658
3 659 589 583
3 661 586 591
3 661 591 667
3 661 667 668
3 591 592 667
3 668 663 661
3 669 668 667
3 667 670 669
3 671 669 670
3 670 672 671
3 671 672 593
3 664 671 593
3 664 593 595
3 595 665 664
3 665 595 587
3 667 592 596
3 597 667 596
3 670 667 597
3 598 670 597
3 672 670 598
3 672 598 593
3 604 673 603
3 603 673 674
3 674 605 603
3 605 674 675
3 675 606 605
3 675 608 606
3 611 676 610
3 676 677 673
3 676 673 610
3 610 673 604
3 673 677 678
3 673 678 674
3 674 678 679
3 674 679 675
3 675 679 680
3 612 675 680
3 675 612 608
3 680 614 612
3 615 681 616
3 681 682 676
3 681 676 616
3 616 676 611
3 677 676 682
3 683 677 682
3 684 677 683
3 677 684 678
3 684 685 678
3 678 685 679
3 685 686 679
3 679 687 680
3 687 679 688
3 686 688 679
3 680 687 689
3 617 680 689
3 680 617 614
3 689 618 617
3 690 615 620
3 615 690 681
3 682 681 690
3 691 682 690
3 692 682 691
3 682 692 683
3 693 687 688
3 687 694 689
3 694 687 695
3 693 695 687
3 694 621 618
3 694 618 689
3 696 620 624
3 620 696 690
3 690 696 697
3 691 690 697
3 694 699 698
3 694 695 699
3 698 626 621
3 698 621 694
3 627 700 628
3 696 628 700
3 696 624 628
3 701 696 700
3 700 702 701
3 696 701 697
3 703 698 699
3 704 626 698
3 705 704 698
3 703 705 698
3 704 629 626
3 704 630 629
3 706 627 631
3 627 706 700
3 700 706 707
3 702 700 707
3 704 709 708
3 704 705 709
3 708 632 630
3 708 630 704
3 710 631 633
3 631 710 706
3 706 710 711
3 707 706 711
3 708 713 712
3 708 709 713
3 712 634 632
3 712 632 708
3 714 633 635
3 633 714 710
3 710 714 715
3 711 710 715
3 712 717 716
3 712 713 717
3 716 636 634
3 716 634 712
3 718 635 637
3 635 718 714
3 714 718 719
3 715 714 719
3 716 721 720
3 716 717 721
3 720 638 636
3 720 636 716
3 722 637 639
3 637 722 718
3 718 722 723
3 719 718 723
3 720 725 724
3 720 721 725
3 724 640 638
3 724 638 720
3 726 639 641
3 639 726 722
3 722 726 727
3 723 722 727
3 724 729 728
3 724 725 729
3 728 642 640
3 728 640 724
3 726 641 644
3 726 644 730
3 726 730 731
3 644 645 730
3 731 727 726
3 731 730 732
3 733 734 735
3 735 734 646
3 729 735 646
3 729 646 648
3 648 728 729
3 728 648 642
3 736 645 650
3 645 736 730
3 730 736 737
3 732 730 737
3 734 739 738
3 734 733 739
3 738 652 646
3 738 646 734
3 740 650 653
3 650 740 736
3 736 740 741
3 741 737 736
3 742 737 741
3 742 741 743
3 744 745 746
3 745 747 738
3 745 738 746
3 746 738 739
3 747 654 652
3 747 652 738
3 740 653 656
3 748 741 740
3 657 748 740
3 656 657 740
3 741 748 749
3 749 743 741
3 750 743 749
3 751 750 749
3 749 752 751
3 753 751 752
3 752 754 753
3 754 755 745
3 754 745 753
3 753 745 744
3 755 747 745
3 658 660 755
3 660 747 755
3 747 660 654
3 748 657 662
3 756 749 748
3 663 756 748
3 662 663 748
3 749 756 757
3 749 757 752
3 752 757 758
3 752 758 754
3 758 755 754
3 664 666 758
3 666 755 758
3 755 666 658
3 756 663 668
3 669 756 668
3 757 756 669
3 671 757 669
3 758 757 671
3 758 671 664
3 683 759 684
3 684 759 760
3 760 685 684
3 685 760 761
3 761 686 685
3 761 688 686
3 691 762 692
3 762 763 759
3 762 759 692
3 692 759 683
3 759 763 764
3 759 764 760
3 760 764 765
3 760 765 761
3 761 765 766
3 693 761 766
3 761 693 688
3 766 695 693
3 767 691 697
3 691 767 762
3 762 767 768
3 762 768 763
3 763 768 769
3 763 769 764
3 764 769 770
3 764 770 765
3 765 770 771
3 765 771 766
3 771 699 695
3 771 695 766
3 702 772 701
3 772 773 767
3 772 767 701
3 701 767 697
3 767 773 774
3 767 774 768
3 769 768 774
3 775 769 774
3 776 769 775
3 769 777 770
3 777 769 778
3 776 778 769
3 770 777 779
3 770 779 771
3 771 779 780
3 703 771 780
3 771 703 699
3 780 705 703
3 781 702 707
3 702 781 772
3 772 781 782
3 772 782 773
3 774 773 782
3 783 774 782
3 784 774 783
3 774 784 775
3 785 777 778
3 777 786 779
3 786 777 787
3 785 787 777
3 779 786 788
3 779 788 780
3 788 709 705
3 788 705 780
3 789 707 711
3 707 789 781
3 781 789 790
3 781 790 782
3 782 790 791
3 783 782 791
3 786 793 792
3 786 787 793
3 786 792 794
3 786 794 788
3 794 713 709
3 794 709 788
3 795 711 715
3 711 795 789
3 789 795 796
3 789 796 790
3 790 796 797
3 791 790 797
3 792 799 798
3 792 793 799
3 792 798 800
3 792 800 794
3 800 717 713
3 800 713 794
3 801 715 719
3 715 801 795
3 795 801 802
3 795 802 796
3 796 802 803
3 797 796 803
3 798 805 804
3 798 799 805
3 798 804 806
3 798 806 800
3 806 721 717
3 806 717 800
3 807 719 723
3 719 807 801
3 801 807 808
3 801 808 802
3 802 808 809
3 803 802 809
3 804 811 810
3 804 805 811
3 804 810 812
3 804 812 806
3 812 725 721
3 812 721 806
3 813 723 727
3 723 813 807
3 807 813 814
3 807 814 808
3 808 814 815
3 815 809 808
3 816 809 815
3 816 815 817
3 818 819 820
3 819 821 810
3 819 810 820
3 820 810 811
3 810 821 822
3 810 822 812
3 822 729 725
3 822 725 812
3 813 727 731
3 823 814 813
3 732 823 813
3 731 732 813
3 814 823 824
3 814 824 815
3 815 824 825
3 825 817 815
3 826 817 825
3 825 827 819
3 825 819 826
3 826 819 818
3 819 827 828
3 819 828 821
3 828 822 821
3 733 735 828
3 735 822 828
3 822 735 729
3 829 732 737
3 732 829 823
3 823 829 830
3 823 830 824
3 824 830 831
3 824 831 825
3 825 831 832
3 825 832 827
3 827 832 833
3 827 833 828
3 833 739 733
3 833 733 828
3 829 737 742
3 834 830 829
3 743 834 829
3 742 743 829
3 830 834 835
3 830 835 831
3 831 835 836
3 831 836 832
3 836 833 832
3 744 746 836
3 746 833 836
3 833 746 739
3 834 743 750
3 751 834 750
3 835 834 751
3 753 835 751
3 836 835 753
3 836 753 744
3 775 837 776
3 837 778 776
3 783 838 784
3 838 839 837
3 838 837 784
3 784 837 775
3 837 839 840
3 785 837 840
3 837 785 778
3 840 787 785
3 841 783 791
3 783 841 838
3 838 841 842
3 838 842 839
3 839 842 843
3 839 843 840
3 843 793 787
3 843 787 840
3 844 791 797
3 791 844 841
3 841 844 845
3 841 845 842
3 842 845 846
3 842 846 843
3 846 799 793
3 846 793 843
3 847 797 803
3 797 847 844
3 844 847 848
3 844 848 845
3 845 848 849
3 845 849 846
3 849 805 799
3 849 799 846
3 850 803 809
3 803 850 847
3 847 850 851
3 847 851 848
3 848 851 852
3 848 852 849
3 852 811 805
3 852 805 849
3 850 809 816
3 853 851 850
3 817 853 850
3 816 817 850
3 853 852 851
3 818 820 853
3 820 852 853
3 852 820 811
3 853 817 826
3 853 826 818
